<?xml version="1.0" encoding="UTF-8" standalone="no"?>
<!-- Created with Inkscape (http://www.inkscape.org/) -->
<svg
   xmlns:dc="http://purl.org/dc/elements/1.1/"
   xmlns:cc="http://creativecommons.org/ns#"
   xmlns:rdf="http://www.w3.org/1999/02/22-rdf-syntax-ns#"
   xmlns:svg="http://www.w3.org/2000/svg"
   xmlns="http://www.w3.org/2000/svg"
   xmlns:sodipodi="http://sodipodi.sourceforge.net/DTD/sodipodi-0.dtd"
   xmlns:inkscape="http://www.inkscape.org/namespaces/inkscape"
   version="1.0"
   width="16"
   height="16"
   id="svg2"
   sodipodi:version="0.32"
   inkscape:version="0.46"
   sodipodi:docname="ZomB icon.svg"
   inkscape:output_extension="org.inkscape.output.svg.inkscape">
  <metadata
     id="metadata7">
    <rdf:RDF>
      <cc:Work
         rdf:about="">
        <dc:format>image/svg+xml</dc:format>
        <dc:type
           rdf:resource="http://purl.org/dc/dcmitype/StillImage" />
      </cc:Work>
    </rdf:RDF>
  </metadata>
  <sodipodi:namedview
     inkscape:window-height="718"
     inkscape:window-width="1366"
     inkscape:pageshadow="2"
     inkscape:pageopacity="0.0"
     guidetolerance="10.0"
     gridtolerance="10.0"
     objecttolerance="10.0"
     borderopacity="1.0"
     bordercolor="#666666"
     pagecolor="#ffffff"
     id="base"
     showgrid="false"
     inkscape:zoom="16"
     inkscape:cx="17.160779"
     inkscape:cy="-0.62459672"
     inkscape:window-x="-8"
     inkscape:window-y="-8"
     inkscape:current-layer="svg2">
    <inkscape:grid
       type="xygrid"
       id="grid2382"
       visible="true"
       enabled="true" />
  </sodipodi:namedview>
  <defs
     id="defs4">
    <inkscape:perspective
       sodipodi:type="inkscape:persp3d"
       inkscape:vp_x="0 : 37.5 : 1"
       inkscape:vp_y="0 : 1000 : 0"
       inkscape:vp_z="190 : 37.5 : 1"
       inkscape:persp3d-origin="95 : 25 : 1"
       id="perspective9" />
  </defs>
  <g
     transform="matrix(0.1233106,0,0,0.1233106,-15.803474,-21.850578)"
     id="layer1">
    <path
       d="M 220.85111,205.31201 C 218.58623,205.31207 216.44336,205.45161 214.44486,205.71826 L 214.25736,205.71826 C 210.99221,205.71832 208.34961,207.46785 206.35111,210.93701 C 204.95233,213.33947 204.25734,214.94944 204.25736,215.74951 L 199.35111,234.65576 C 198.01945,239.85964 196.93596,244.18656 196.06986,247.65576 L 194.06986,255.87451 C 193.07982,259.83461 192.57817,262.40022 192.50736,263.71826 C 178.85111,264.81201 173.85111,264.81201 158.53493,265.93042 L 151.15993,266.43042 L 149.53493,265.43042 L 149.53493,265.11792 L 188.15993,228.74292 C 192.62764,224.54375 195.48815,221.70985 196.75368,220.24292 C 199.82164,216.84332 201.29414,214.09129 201.15993,212.02417 C 200.89334,209.49128 198.00158,207.99217 192.53493,207.52417 C 192.06897,207.52423 191.34835,207.55087 190.34743,207.61787 C 189.14701,207.75219 188.23141,207.83669 187.56618,207.83662 C 186.76656,207.83669 186.0413,207.83669 185.44118,207.83662 L 176.25368,208.24287 C 174.71962,208.31017 173.60743,208.30787 172.94118,208.27407 C 172.27483,208.24057 171.52658,208.24287 170.65993,208.24287 C 170.39336,208.24294 167.33527,208.43792 161.53493,208.83662 C 157.33569,209.1032 153.11376,209.34938 148.84743,209.61787 C 143.4458,210.08383 139.30778,210.75123 136.44118,211.61787 C 134.17473,212.3504 133.03492,213.43496 133.03493,214.83667 C 133.03492,215.16836 133.11943,215.5563 133.25368,216.02417 L 133.25368,216.43042 C 133.25368,219.56362 133.86582,221.34421 135.06618,221.74292 C 136.66529,223.01046 138.41464,223.61797 140.34743,223.61792 C 141.54778,223.61797 143.07349,223.50949 144.94118,223.24292 C 145.53931,223.24297 146.90072,223.12985 149.03493,222.93042 C 157.43538,222.12888 163.60203,221.52146 169.15993,220.24292 C 170.70886,220.29032 172.56935,220.0416 173.65993,219.93042 C 174.99249,219.86332 176.24078,220.19805 177.44118,220.93042 L 177.44118,221.43042 L 135.94118,259.43042 C 133.74187,261.43035 132.13225,263.23553 131.06618,264.83667 C 129.46502,267.10312 128.65993,269.13192 128.65993,270.93042 L 128.65993,271.33667 C 128.32831,272.46989 128.15993,273.49658 128.15993,274.43042 C 128.15993,274.96346 128.40814,275.65747 128.94118,276.52417 C 130.40805,278.12532 133.38169,278.90377 137.84743,278.83667 C 140.24814,278.76947 145.05355,278.43684 152.25368,277.83667 C 171.85111,275.81201 185.85111,274.81201 202.31986,274.46826 C 203.71365,274.49466 208.66041,274.80124 212.97611,274.46826 C 217.29181,274.13528 221.67065,274.58217 230.13236,271.78076 C 240.05781,268.51309 247.12149,264.09975 251.31986,258.56201 C 252.58437,256.8946 253.25266,255.17632 253.31986,253.37451 C 253.38686,251.63991 252.6919,249.91696 251.22611,248.24951 C 248.42853,244.2469 244.75779,241.50337 240.22611,239.96826 L 240.13241,239.74951 L 240.03861,238.65576 L 240.22611,238.34326 C 242.75927,237.27442 245.26197,236.13621 247.72611,234.93701 C 252.18866,232.73417 255.16645,230.23849 256.63236,227.43701 C 257.16496,226.30303 257.49811,225.30436 257.63236,224.43701 C 257.83153,223.83646 257.91354,223.00389 257.91361,221.93701 C 257.91354,217.93442 255.63535,214.46663 251.03861,211.53076 C 246.97443,208.9289 241.94037,207.2372 235.94486,206.43701 C 230.68322,205.7021 225.64915,205.31207 220.85111,205.31201 z M 231.94486,215.68701 C 232.4403,215.68901 232.95361,215.72461 233.44486,215.74951 C 237.70819,215.94908 240.90587,216.69524 243.03861,218.03076 C 244.83784,219.23201 245.58615,220.59151 245.31986,222.12451 C 245.05144,223.65966 243.96999,225.26963 242.03861,226.93701 C 238.90762,229.7385 234.84736,232.04384 229.85111,233.81201 C 224.85478,235.58024 220.20821,236.43705 215.94486,236.43701 L 215.35111,236.15576 L 214.85111,235.65576 L 214.53861,234.84326 C 215.20543,231.97467 215.79176,229.67165 216.25736,227.93701 C 217.19052,223.99956 218.4985,220.83742 220.16361,218.43701 L 221.25736,217.34326 C 224.93086,216.23525 228.47678,215.6728 231.94486,215.68701 z M 225.75736,245.56201 C 231.22021,245.56204 235.41936,246.53416 238.35111,248.46826 C 239.01587,248.80218 239.57095,249.52176 240.03861,250.65576 L 240.03861,251.15576 C 239.63805,252.8232 238.49664,254.43319 236.63236,255.96826 C 232.90161,259.03642 231.07101,261.34992 225.10111,262.78076 C 222.17267,263.48263 216.38005,264.22159 207.00736,263.84326 L 207.19486,262.56201 L 210.94486,247.74951 L 211.85111,247.34326 C 216.91549,246.14209 221.56105,245.56204 225.75736,245.56201 z"
       id="path2825"
       style="font-size:100px;font-style:normal;font-variant:normal;font-weight:normal;font-stretch:normal;text-align:start;line-height:125%;writing-mode:lr-tb;text-anchor:start;fill:#000000;fill-opacity:1;stroke:none;font-family:Jivetalk;-inkscape-font-specification:Jivetalk"
       sodipodi:nodetypes="ccccccccccccccccccsccsscccscccsccccccccccsccccscssccccccccsccccscscsccccccccccccssccccc" />
  </g>
</svg>
