<?xml version="1.0" encoding="UTF-8" standalone="no"?>
<!-- Created with Inkscape (http://www.inkscape.org/) -->

<svg
   xmlns:svg="http://www.w3.org/2000/svg"
   xmlns="http://www.w3.org/2000/svg"
   version="1.1"
   width="1024"
   height="400"
   id="svg2">
  <defs
     id="defs4" />
  <g
     transform="translate(-130.28125,117.43355)"
     id="layer1">
    <path
       d="m 946.24335,-110.95901 c -12.21177,3.2e-4 -23.76567,0.75269 -34.54116,2.19041 l -1.01096,0 c -17.605,3.3e-4 -31.85334,9.433419 -42.62883,28.138399 -7.54192,12.953559 -11.28917,21.634178 -11.28907,25.947986 L 830.31987,47.256304 c -7.18003,28.058225 -13.02198,51.388069 -17.6918,70.093266 l -10.78358,44.31377 c -5.33809,21.35202 -8.04288,35.18525 -8.42468,42.29185 -32.9283,-0.52139 -112.43449,-4.43885 -185.17426,-5.89727 -104.95054,-2.1042 -165.95017,-1.32369 -222.41131,2.6959 l -56.61379,4.04383 c -7.18531,0.35101 -16.17601,0.96098 -26.95894,1.68494 l -39.76445,2.69589 -8.76166,-5.39179 0,-1.68493 L 461.99326,5.9754166 c 24.08895,-22.6410406 39.51222,-37.9208326 46.33569,-45.8302106 16.54179,-18.329927 24.4812,-33.168293 23.75757,-44.313769 -1.4374,-13.65681 -17.02916,-21.739697 -46.50419,-24.263047 -2.51235,3.3e-4 -6.39778,0.14396 -11.79453,0.50521 -6.47241,0.72423 -11.40914,1.17983 -14.99592,1.17946 -4.31138,3.7e-4 -8.22183,3.7e-4 -11.45755,0 l -49.53707,2.1904 c -8.27132,0.36288 -14.26801,0.35048 -17.8603,0.16823 -3.59282,-0.18062 -7.62723,-0.16823 -12.30002,-0.16823 -1.43729,3.9e-4 -17.92586,1.05168 -49.20007,3.20138 -22.64142,1.437342 -45.40518,2.764693 -68.40834,4.212334 -29.12444,2.512359 -51.43578,6.110839 -66.89188,10.783579 -12.22023,3.949648 -18.36584,9.797367 -18.36579,17.355092 -5e-5,1.788403 0.45562,3.880093 1.17946,6.40275 l 0,2.190414 c 0,16.893555 3.30053,26.494121 9.77262,28.643882 8.62207,6.834308 18.05419,10.109875 28.47538,10.109605 6.47205,2.7e-4 14.69835,-0.584632 24.76854,-2.021921 3.22499,2.69e-4 10.56542,-0.60965 22.07264,-1.684935 45.29346,-4.321735 78.54273,-7.596815 108.50976,-14.490434 8.3515,0.255572 18.38287,-1.085475 24.26305,-1.684934 7.18489,-0.361788 13.9154,1.443005 20.3877,5.39179 l 0,2.695895 -223.75925,204.888003 c -11.85822,10.7832 -20.53696,20.51635 -26.28498,29.14936 -8.63312,12.22022 -12.97399,23.15908 -12.97399,32.85621 l 0,2.19042 c -1.78802,6.11009 -2.69589,11.64578 -2.69589,16.68085 0,2.87404 1.33829,6.61599 4.21233,11.28905 7.90905,8.63307 23.94229,12.83031 48.02062,12.46853 12.94412,-0.36234 38.85388,-2.1558 77.67547,-5.39179 32.71123,-2.87405 139.03634,-11.75621 220.0524,-14.82743 84.02608,-3.18531 191.07532,4.55849 357.88002,6.06576 7.51503,0.14235 34.18691,1.79536 57.45626,0 23.26934,-1.79535 46.87914,0.61418 92.50289,-14.49043 53.51591,-17.61859 91.60181,-41.41439 114.23851,-71.27272 6.818,-8.99032 10.4213,-18.25492 10.7836,-27.96991 0.3613,-9.35259 -3.3858,-18.64237 -11.2891,-27.63291 -15.0839,-21.581244 -34.8758,-36.373775 -59.3096,-44.650765 l -0.5053,-1.179454 -0.5057,-5.897269 1.011,-1.684935 c 13.6582,-5.76296 27.1522,-11.899949 40.4384,-18.365783 24.0611,-11.877249 40.1167,-25.33343 48.0206,-40.43842 2.8717,-6.1141809 4.668,-11.4987992 5.3918,-16.1753677 1.0739,-3.2380393 1.5161,-7.7270813 1.5165,-13.4794743 -4e-4,-21.581122 -12.284,-40.278715 -37.0686,-56.108308 -21.9132,-14.028681 -49.0558,-23.149964 -81.3823,-27.464414 -28.36969,-3.96249 -55.51232,-6.06545 -81.38234,-6.06577 z m 59.81515,55.939809 c 2.6713,0.01078 5.439,0.202731 8.0877,0.336986 22.987,1.07604 40.2281,5.099177 51.7275,12.30002 9.701,6.476887 13.7357,13.807025 12.3,22.072638 -1.4473,8.277205 -7.2782,16.957825 -17.6918,25.9479867 -16.8817,15.1050443 -38.7738,27.5349513 -65.71245,37.0685523 -26.93917,9.533923 -51.99248,14.153662 -74.97957,14.153447 l -3.20137,-1.516441 -2.69589,-2.695895 -1.68493,-4.380829 c 3.59535,-15.466833 6.75672,-27.884232 9.26713,-37.237046 5.03139,-21.2299 12.08375,-38.279494 21.06168,-51.221998 l 5.89727,-5.89727 c 19.80673,-5.974156 38.92559,-9.006769 57.62473,-8.930151 z M 747.9266,71.68785 c -12.34176,1.689894 -18.94696,13.963332 -26.62198,22.409624 -10.45209,13.119636 -19.85455,27.106416 -27.9699,41.786376 0.5917,-14.00765 0.93699,-28.31714 5.0548,-41.786376 3.95995,-11.47707 -10.82002,-15.510776 -19.54523,-14.658927 -2.75322,-0.208123 -5.56534,3.822832 -2.35892,0.168224 -9.74425,-0.258807 -16.8736,8.066494 -19.20824,16.849342 -8.77222,21.423687 -17.44724,42.819057 -25.44251,64.532977 -2.13321,9.16061 -9.29905,19.39411 -2.5274,28.13841 5.1793,4.32341 16.85096,5.16349 19.20825,-2.86439 6.17829,-10.85599 9.39816,-23.19073 14.15345,-34.70964 l 7.41371,-19.54524 c 0.18224,12.11071 -0.24478,24.13834 0,36.22608 -1.13761,11.86049 11.47055,20.8327 21.23018,12.30002 8.28562,-6.22568 10.78809,-17.48972 16.17537,-26.11647 4.77933,-9.62468 9.91669,-19.15423 17.01783,-27.29594 -3.10658,15.74888 -6.72367,31.95568 -4.54932,48.02062 0.69791,7.96546 7.78385,13.77678 15.66989,12.974 9.85722,1.59316 12.48614,-8.07005 11.28906,-15.66989 0.33051,-29.0597 10.50595,-56.77231 22.40962,-82.898768 C 770.25368,78.368276 757.01883,73.041836 747.9266,71.68758 z m -156.86737,6.90823 c -1.0349,-0.01078 -1.98208,0.07225 -3.03289,0.168223 l -4.21233,0 c -14.79739,1.503285 -29.94265,4.646536 -41.95486,13.984954 -18.92696,13.896423 -32.4678,37.234943 -30.6658,61.163113 1.68763,12.07735 9.20815,23.22061 19.54523,29.65484 17.42276,9.52374 38.84763,10.50192 57.79325,5.39179 18.44347,-6.26008 29.97705,-24.30543 36.39457,-41.78636 4.3811,-13.64694 6.39796,-29.06471 1.34795,-42.79734 -6.09768,-13.86315 -19.69136,-25.640058 -35.21512,-25.77949 z m -2.19042,18.534276 c 11.46057,-0.207045 14.51621,13.002524 14.99591,22.072644 1.02239,23.62315 -13.5878,49.85486 -38.07951,54.59187 -9.169,1.67975 -21.59289,-2.37056 -25.27401,-11.62605 -4.02572,-12.26848 2.65223,-24.92215 8.42467,-35.55211 8.52997,-14.51895 21.61364,-29.617699 39.93294,-29.486354 z m 383.82801,8.930154 c 29.45458,1.6e-4 52.09548,5.24163 67.90288,15.66989 3.5842,1.80042 6.5771,5.68025 9.0986,11.79454 l 0,2.6959 c -2.1597,8.99048 -8.314,17.67121 -18.3658,25.94798 -20.1153,16.54287 -29.9856,29.01677 -62.17404,36.73157 -15.78953,3.78433 -47.02212,7.76865 -97.55769,5.72877 l 1.01096,-6.90823 20.21921,-79.86588 4.88631,-2.19041 c 27.30607,-6.47646 52.35395,-9.60397 74.97957,-9.60413 z"
       id="path2825"
       style="font-size:100px;font-style:normal;font-variant:normal;font-weight:normal;font-stretch:normal;text-align:start;line-height:125%;writing-mode:lr-tb;text-anchor:start;opacity:0.5;fill:#000000;fill-opacity:1;stroke:none;font-family:Jivetalk;-inkscape-font-specification:Jivetalk" />
    <path
       d="m 130.78503,-116.93735 0,398.99999 1023.00007,0 0,-398.99999 -1023.00007,0 z"
       id="path3266"
       style="fill:none;stroke:#000000;stroke-width:0.99999994px;stroke-linecap:butt;stroke-linejoin:miter;stroke-opacity:1" />
  </g>
</svg>
