<?xml version="1.0" encoding="UTF-8" standalone="no"?>
<!-- Created with Inkscape (http://www.inkscape.org/) -->

<svg
   xmlns:svg="http://www.w3.org/2000/svg"
   xmlns="http://www.w3.org/2000/svg"
   version="1.1"
   width="190"
   height="75"
   id="svg2">
  <defs
     id="defs4" />
  <g
     transform="translate(-130.28125,-207.56645)"
     id="layer1">
    <path
       d="m 281.65625,209.17383 c -2.26488,6e-5 -4.40775,0.1396 -6.40625,0.40625 l -0.1875,0 c -3.26515,6e-5 -5.90775,1.74959 -7.90625,5.21875 -1.39878,2.40246 -2.09377,4.01243 -2.09375,4.8125 l -4.90625,18.90625 c -1.33166,5.20388 -2.41515,9.5308 -3.28125,13 l -2,8.21875 c -0.99004,3.9601 -1.49169,6.52571 -1.5625,7.84375 -6.10712,-0.0967 -20.85291,-0.82326 -34.34375,-1.09375 -19.46488,-0.39026 -30.77831,-0.2455 -41.25,0.5 l -10.5,0.75 c -1.33264,0.0651 -3.00012,0.17823 -5,0.3125 l -7.375,0.5 -1.625,-1 0,-0.3125 38.625,-36.375 c 4.46771,-4.19917 7.32822,-7.03307 8.59375,-8.5 3.06796,-3.3996 4.54046,-6.15163 4.40625,-8.21875 -0.26659,-2.53289 -3.15835,-4.032 -8.625,-4.5 -0.46596,6e-5 -1.18658,0.0267 -2.1875,0.0937 -1.20042,0.13432 -2.11602,0.21882 -2.78125,0.21875 -0.79962,7e-5 -1.52488,7e-5 -2.125,0 l -9.1875,0.40625 c -1.53406,0.0673 -2.64625,0.065 -3.3125,0.0312 -0.66635,-0.0335 -1.4146,-0.0312 -2.28125,-0.0312 -0.26657,7e-5 -3.32466,0.19505 -9.125,0.59375 -4.19924,0.26658 -8.42117,0.51276 -12.6875,0.78125 -5.40163,0.46596 -9.53965,1.13336 -12.40625,2 -2.26645,0.73253 -3.40626,1.81709 -3.40625,3.2188 -1e-5,0.33169 0.0845,0.71963 0.21875,1.1875 l 0,0.40625 c 0,3.1332 0.61214,4.91379 1.8125,5.3125 1.59911,1.26754 3.34846,1.87505 5.28125,1.875 1.20035,5e-5 2.72606,-0.10843 4.59375,-0.375 0.59813,5e-5 1.95954,-0.11307 4.09375,-0.3125 8.40045,-0.80154 14.5671,-1.40896 20.125,-2.6875 1.54893,0.0474 3.40942,-0.20132 4.5,-0.3125 1.33256,-0.0671 2.58085,0.26763 3.78125,1 l 0,0.5 -41.5,38 c -2.19931,1.99993 -3.80893,3.80511 -4.875,5.40625 -1.60116,2.26645 -2.40625,4.29525 -2.40625,6.09375 l 0,0.40625 c -0.33162,1.13322 -0.5,2.15991 -0.5,3.09375 0,0.53304 0.24821,1.22705 0.78125,2.09375 1.46687,1.60115 4.44051,2.3796 8.90625,2.3125 2.40071,-0.0672 7.20612,-0.39983 14.40625,-1 6.06686,-0.53304 25.78668,-2.18039 40.8125,-2.75 15.58408,-0.59077 35.4382,0.84545 66.375,1.125 1.39379,0.0264 6.34055,0.33298 10.65625,0 4.3157,-0.33298 8.69454,0.11391 17.15625,-2.6875 9.92545,-3.26767 16.98913,-7.68101 21.1875,-13.21875 1.26451,-1.66741 1.9328,-3.38569 2,-5.1875 0.067,-1.7346 -0.62796,-3.45755 -2.09375,-5.125 -2.79758,-4.00261 -6.46832,-6.74614 -11,-8.28125 l -0.0937,-0.21875 -0.0938,-1.09375 0.1875,-0.3125 c 2.53316,-1.06884 5.03586,-2.20705 7.5,-3.40625 4.46255,-2.20284 7.44034,-4.69852 8.90625,-7.5 0.5326,-1.13398 0.86575,-2.13265 1,-3 0.19917,-0.60055 0.28118,-1.43312 0.28125,-2.5 -7e-5,-4.00259 -2.27826,-7.47038 -6.875,-10.40625 -4.06418,-2.60186 -9.09824,-4.29356 -15.09375,-5.09375 -5.26164,-0.73491 -10.29571,-1.12494 -15.09375,-1.125 z m 11.09375,10.375 c 0.49544,0.002 1.00875,0.0376 1.5,0.0625 4.26333,0.19957 7.46101,0.94573 9.59375,2.28125 1.79923,1.20125 2.54754,2.56075 2.28125,4.09375 -0.26842,1.53515 -1.34987,3.14512 -3.28125,4.8125 -3.13099,2.80149 -7.19125,5.10683 -12.1875,6.875 -4.99633,1.76823 -9.6429,2.62504 -13.90625,2.625 l -0.59375,-0.28125 -0.5,-0.5 -0.3125,-0.8125 c 0.66682,-2.86859 1.25315,-5.17161 1.71875,-6.90625 0.93316,-3.93745 2.24114,-7.09959 3.90625,-9.5 l 1.09375,-1.09375 c 3.6735,-1.10801 7.21942,-1.67046 10.6875,-1.65625 z m -47.875,23.5 c -2.28899,0.31342 -3.51404,2.58974 -4.9375,4.15625 -1.93852,2.43326 -3.68237,5.02735 -5.1875,7.75 0.10974,-2.59796 0.17378,-5.2519 0.9375,-7.75 0.73444,-2.12862 -2.00676,-2.87674 -3.625,-2.71875 -0.51063,-0.0386 -1.03219,0.70901 -0.4375,0.0312 -1.80724,-0.048 -3.1295,1.49607 -3.5625,3.125 -1.62696,3.97339 -3.23589,7.94153 -4.71875,11.96875 -0.39564,1.69899 -1.72467,3.59697 -0.46875,5.21875 0.96059,0.80185 3.1253,0.95766 3.5625,-0.53125 1.14587,-2.01343 1.74305,-4.30112 2.625,-6.4375 l 1.375,-3.625 c 0.0338,2.24614 -0.0454,4.47687 0,6.71875 -0.21099,2.19973 2.12741,3.86378 3.9375,2.28125 1.53671,-1.15466 2.00084,-3.24377 3,-4.84375 0.88641,-1.78506 1.83922,-3.55248 3.15625,-5.0625 -0.57617,2.9209 -1.24702,5.92673 -0.84375,8.90625 0.12944,1.47733 1.44365,2.55514 2.90625,2.40625 1.82819,0.29548 2.31577,-1.49673 2.09375,-2.90625 0.0613,-5.38962 1.94851,-10.5294 4.15625,-15.375 0.17219,-2.07345 -2.28244,-3.06133 -3.96875,-3.3125 z m -29.09375,1.28125 c -0.19194,-0.002 -0.36761,0.0134 -0.5625,0.0312 l -0.78125,0 c -2.74443,0.27881 -5.55338,0.86178 -7.78125,2.59375 -3.51033,2.57733 -6.02171,6.90586 -5.6875,11.34375 0.313,2.23995 1.70781,4.30666 3.625,5.5 3.23135,1.76634 7.20496,1.94776 10.71875,1 3.42066,-1.16104 5.55976,-4.50786 6.75,-7.75 0.81255,-2.53106 1.18661,-5.39055 0.25,-7.9375 -1.13092,-2.57116 -3.6521,-4.75539 -6.53125,-4.78125 z m -0.40625,3.4375 c 2.12556,-0.0384 2.69228,2.41154 2.78125,4.09375 0.18962,4.38132 -2.52009,9.24644 -7.0625,10.125 -1.70055,0.31154 -4.00477,-0.43966 -4.6875,-2.15625 -0.74664,-2.2754 0.4919,-4.62224 1.5625,-6.59375 1.58203,-2.69279 4.00862,-5.49311 7.40625,-5.46875 z m 71.1875,1.65625 c 5.46285,3e-5 9.662,0.97215 12.59375,2.90625 0.66476,0.33392 1.21984,1.0535 1.6875,2.1875 l 0,0.5 c -0.40056,1.66744 -1.54197,3.27743 -3.40625,4.8125 -3.73075,3.06816 -5.56135,5.38166 -11.53125,6.8125 -2.92844,0.70187 -8.72106,1.44083 -18.09375,1.0625 l 0.1875,-1.28125 3.75,-14.8125 0.90625,-0.40625 c 5.06438,-1.20117 9.70994,-1.78122 13.90625,-1.78125 z"
       id="path2825"
       style="font-size:100px;font-style:normal;font-variant:normal;font-weight:normal;font-stretch:normal;text-align:start;line-height:125%;writing-mode:lr-tb;text-anchor:start;fill:#000000;fill-opacity:1;stroke:none;font-family:Jivetalk;-inkscape-font-specification:Jivetalk" />
  </g>
</svg>
