<?xml version="1.0" encoding="UTF-8" standalone="no"?>
<!-- Created with Inkscape (http://www.inkscape.org/) -->

<svg
   xmlns:svg="http://www.w3.org/2000/svg"
   xmlns="http://www.w3.org/2000/svg"
   version="1.1"
   width="190"
   height="92"
   id="svg2">
  <defs
     id="defs4" />
  <g
     transform="translate(-130.28125,-190.56645)"
     id="layer1">
    <path
       d="m 281.65625,191.98837 c -2.26488,6e-5 -4.40775,0.1396 -6.40625,0.40625 l -0.1875,0 c -3.26515,6e-5 -5.90775,1.74959 -7.90625,5.21875 -1.39878,2.40246 -2.09377,4.01243 -2.09375,4.8125 l -4.90625,18.90625 c -1.33166,5.20388 -2.41515,9.5308 -3.28125,13 l -2,8.21875 c -0.99004,3.9601 -1.49169,6.52571 -1.5625,7.84375 -6.10712,-0.0967 -20.85291,-0.82326 -34.34375,-1.09375 -19.46488,-0.39026 -30.77831,-0.2455 -41.25,0.5 l -10.5,0.75 c -1.33264,0.0651 -3.00012,0.17823 -5,0.3125 l -7.375,0.5 -1.625,-1 0,-0.3125 38.625,-36.375 c 4.46771,-4.19917 7.32822,-7.03307 8.59375,-8.5 3.06796,-3.3996 4.54046,-6.15163 4.40625,-8.21875 -0.26659,-2.53289 -3.15835,-4.032 -8.625,-4.5 -0.46596,6e-5 -1.18658,0.0268 -2.1875,0.0937 -1.20042,0.13432 -2.11602,0.21882 -2.78125,0.21875 -0.79962,7e-5 -1.52488,7e-5 -2.125,0 l -9.1875,0.40625 c -1.53406,0.0673 -2.64625,0.0651 -3.3125,0.0312 -0.66635,-0.0335 -1.4146,-0.0312 -2.28125,-0.0312 -0.26657,7e-5 -3.32466,0.19505 -9.125,0.59375 -4.19924,0.26658 -8.42117,0.51276 -12.6875,0.78125 -5.40163,0.46596 -9.53965,1.13337 -12.40625,2 -2.26645,0.73253 -3.40626,1.81704 -3.40625,3.21875 -1e-5,0.33169 0.0845,0.71963 0.21875,1.1875 l 0,0.40625 c 0,3.1332 0.61214,4.91379 1.8125,5.3125 1.59911,1.26754 3.34846,1.87505 5.28125,1.875 1.20035,5e-5 2.72606,-0.10843 4.59375,-0.375 0.59813,5e-5 1.95954,-0.11307 4.09375,-0.3125 8.40045,-0.80153 14.5671,-1.40896 20.125,-2.6875 1.54893,0.0474 3.40942,-0.20132 4.5,-0.3125 1.33256,-0.0671 2.58085,0.26763 3.78125,1 l 0,0.5 -41.5,38 c -2.19931,1.99993 -3.80893,3.80512 -4.875,5.40625 -1.60116,2.26645 -2.40625,4.29526 -2.40625,6.09376 l 0,0.40625 c -0.33162,1.13322 -0.5,2.1599 -0.5,3.09375 0,0.53304 0.24821,1.22705 0.78125,2.09375 1.46687,1.60115 4.44051,2.3796 8.90625,2.3125 2.40071,-0.0672 7.20612,-0.39983 14.40625,-1 6.06686,-0.53305 25.78668,-2.18039 40.8125,-2.75 15.58408,-0.59078 35.4382,0.84545 66.375,1.125 1.39379,0.0264 6.34055,0.33298 10.65625,0 4.3157,-0.33299 8.69454,0.1139 17.15625,-2.6875 9.92545,-3.26767 16.98913,-7.68101 21.1875,-13.21875 1.26451,-1.66741 1.9328,-3.38569 2,-5.1875 0.067,-1.7346 -0.62796,-3.45755 -2.09375,-5.125 -2.79758,-4.00261 -6.46832,-6.74614 -11,-8.28125 l -0.0937,-0.21875 -0.0937,-1.09375 0.1875,-0.3125 c 2.53316,-1.06884 5.03586,-2.20705 7.5,-3.40625 4.46255,-2.20284 7.44034,-4.69852 8.90625,-7.5 0.5326,-1.13398 0.86575,-2.13265 1,-3 0.19917,-0.60055 0.28118,-1.43312 0.28125,-2.5 -7e-5,-4.00259 -2.27826,-7.47038 -6.875,-10.40625 -4.06428,-2.60186 -9.09834,-4.29356 -15.09385,-5.09375 -5.26164,-0.73491 -10.29571,-1.12494 -15.09375,-1.125 z m 11.09375,10.375 c 0.49544,0.002 1.00875,0.0376 1.5,0.0625 4.26333,0.19957 7.46101,0.94573 9.59375,2.28125 1.79923,1.20125 2.54754,2.56075 2.28125,4.09375 -0.26842,1.53515 -1.34987,3.14512 -3.28125,4.8125 -3.13099,2.80149 -7.19125,5.10683 -12.1875,6.875 -4.99633,1.76823 -9.6429,2.62504 -13.90625,2.625 l -0.59375,-0.28125 -0.5,-0.5 -0.3125,-0.8125 c 0.66682,-2.86859 1.25315,-5.17161 1.71875,-6.90625 0.93316,-3.93745 2.24114,-7.09959 3.90625,-9.5 l 1.09375,-1.09375 c 3.6735,-1.10801 7.21942,-1.67046 10.6875,-1.65625 z m -47.875,23.5 c -2.28899,0.31342 -3.51404,2.58974 -4.9375,4.15625 -1.93852,2.43326 -3.68237,5.02735 -5.1875,7.75 0.10974,-2.59796 0.17378,-5.2519 0.9375,-7.75 0.73444,-2.12862 -2.00676,-2.87674 -3.625,-2.71875 -0.51063,-0.0386 -1.03219,0.70906 -0.4375,0.0312 -1.80724,-0.048 -3.1295,1.49607 -3.5625,3.125 -1.62696,3.97339 -3.23589,7.94153 -4.71875,11.96875 -0.39564,1.69899 -1.72467,3.59697 -0.46875,5.21875 0.96059,0.80185 3.1253,0.95766 3.5625,-0.53125 1.14587,-2.01343 1.74305,-4.30112 2.625,-6.4375 l 1.375,-3.625 c 0.0338,2.24614 -0.0454,4.47687 0,6.71875 -0.21099,2.19973 2.12741,3.86378 3.9375,2.28125 1.53671,-1.15466 2.00084,-3.24377 3,-4.84375 0.88641,-1.78505 1.83922,-3.55248 3.15625,-5.0625 -0.57617,2.9209 -1.24702,5.92673 -0.84375,8.90625 0.12944,1.47733 1.44365,2.55514 2.90625,2.40625 1.82819,0.29548 2.31577,-1.49673 2.09375,-2.90625 0.0613,-5.38962 1.94851,-10.5294 4.15625,-15.375 0.17219,-2.07345 -2.28244,-3.06133 -3.96875,-3.3125 z m -29.09375,1.28125 c -0.19194,-0.002 -0.36761,0.0135 -0.5625,0.0312 l -0.78125,0 c -2.74443,0.27881 -5.55338,0.86179 -7.78125,2.59375 -3.51033,2.57733 -6.02171,6.90586 -5.6875,11.34375 0.313,2.23995 1.70781,4.30666 3.625,5.5 3.23135,1.76635 7.20496,1.94776 10.71875,1 3.42066,-1.16104 5.55976,-4.50786 6.75,-7.75 0.81255,-2.53106 1.18661,-5.39054 0.25,-7.9375 -1.13092,-2.57116 -3.6521,-4.75539 -6.53125,-4.78125 z m -0.40625,3.4375 c 2.12556,-0.0384 2.69228,2.41154 2.78125,4.09375 0.18962,4.38132 -2.52009,9.24644 -7.0625,10.125 -1.70055,0.31154 -4.00477,-0.43966 -4.6875,-2.15625 -0.74664,-2.2754 0.4919,-4.62224 1.5625,-6.59375 1.58203,-2.69279 4.00862,-5.49311 7.40625,-5.46875 z m 71.1875,1.65625 c 5.46285,3e-5 9.662,0.97215 12.59375,2.90625 0.66476,0.33392 1.21984,1.0535 1.6875,2.1875 l 0,0.5 c -0.40056,1.66744 -1.54197,3.27743 -3.40625,4.8125 -3.73075,3.06816 -5.56135,5.38166 -11.53125,6.8125 -2.92844,0.70187 -8.72106,1.44083 -18.09375,1.0625 l 0.1875,-1.28125 3.75,-14.8125 0.90625,-0.40625 c 5.06438,-1.20117 9.70994,-1.78122 13.90625,-1.78125 z m -31.84375,33.15626 c -0.10295,0 -0.17319,0.0165 -0.1875,0.0312 -0.7627,0 -1.44833,0.14605 -2.09375,0.46875 l -0.40625,0.21875 c -1.80379,0.90906 -3.02344,1.95143 -3.625,3.125 -0.55725,1.08541 -0.82727,1.85991 -0.8125,2.34375 0.0143,0.67451 0.35242,1.37491 0.96875,2.09375 0.57202,0.65974 1.18571,1.14604 1.875,1.46875 0.2784,0.13204 0.47603,0.22433 0.59375,0.3125 0.19067,0.0877 0.67309,0.24683 1.40625,0.4375 0.64542,0.16158 0.99124,0.25216 1.09375,0.28125 0.55724,0.16158 0.89705,0.32194 1,0.46875 0.39566,0.20499 0.6267,0.42342 0.65625,0.6875 l 0,0.0937 c -1e-5,0.2493 -0.14957,0.49137 -0.40625,0.71875 -0.2567,0.22737 -0.51718,0.36238 -0.78125,0.40625 -0.0734,0.0443 -0.39674,0.0811 -0.96875,0.125 -0.43999,0.0291 -0.80059,0.0625 -1.09375,0.0625 -0.49862,0 -1.0547,-0.0724 -1.65625,-0.21875 -0.21977,-0.0443 -0.45683,-0.11455 -0.75,-0.1875 -0.95337,-0.52816 -1.6681,-1.12321 -2.09375,-1.8125 -0.2784,-0.43998 -0.55013,-0.74467 -0.84375,-0.90625 0.004,-0.004 0,-0.0241 0,-0.0312 -0.23454,0.0291 -0.46944,0.0644 -0.71875,0.0937 -0.24931,0.0293 -0.44694,0.10319 -0.59375,0.25 l -0.0312,0.0312 c -0.23498,0.30794 -0.34375,0.59831 -0.34375,0.90625 0,0.49861 0.2531,1.01786 0.78125,1.53125 0.76269,0.77746 1.87722,1.4315 3.34375,1.9375 1.46652,0.50599 2.76221,0.67805 3.90625,0.53125 0.35224,-10e-6 0.71785,-0.0371 1.0625,-0.125 0.34463,-0.088 0.69376,-0.17831 1.03125,-0.28125 1.36379,-0.54248 2.31945,-1.31312 2.90625,-2.28125 0.16112,-0.26408 0.28681,-0.5341 0.375,-0.8125 0.0291,-0.0882 0.0625,-0.14148 0.0625,-0.15625 -0.0291,-0.16113 -0.0976,-0.41252 -0.15625,-0.75 -0.49863,-1.14404 -1.49111,-1.86523 -3.03125,-2.1875 -0.6893,-0.22021 -1.72951,-0.59684 -3.09375,-1.125 -0.0143,-0.0143 -0.0664,-0.0312 -0.125,-0.0312 -0.57202,-0.0295 -0.96729,-0.35457 -1.1875,-1 -0.1025,-0.2784 -0.13933,-0.58353 -0.125,-0.90625 0.0148,-0.30794 0.10534,-0.59615 0.28125,-0.875 0.807,-1.29039 1.86584,-2.13513 3.15625,-2.53125 l 0.0937,0 c 1.39333,1e-5 2.41707,0.32333 3.0625,0.96875 0.6745,0.54248 1.12568,0.84762 1.375,0.90625 l 0.125,0 c 0.67495,1e-5 0.99999,-0.37492 1,-1.09375 -10e-6,-0.57201 -0.19549,-0.98636 -0.5625,-1.25 -0.65976,-0.45474 -1.54177,-0.95536 -2.65625,-1.46875 -0.52817,-0.23453 -1.12322,-0.38056 -1.8125,-0.46875 z m -114.53125,0.1875 -1.40625,0.25 c -0.55725,1.43766 -0.87887,2.33569 -0.9375,2.6875 0,0.10251 -0.0182,0.20956 -0.0625,0.3125 -0.26363,0.95337 -0.51331,1.8514 -0.71875,2.6875 -0.64542,2.5226 -1.11479,5.06022 -1.4375,7.65625 l 0,0.3125 0.0312,0.0312 c 0.0439,0.39611 0.1899,0.71773 0.46875,0.9375 l 2.125,0.6875 c 0.61588,-1e-5 1.17627,-0.0702 1.71875,-0.1875 l 0.0625,0.0625 0.15625,-0.125 c 1.14403,-0.0882 2.2397,-0.34127 3.28125,-0.78125 2.09694,-0.89473 3.75516,-2.20497 5.03125,-3.90625 1.27606,-1.70128 1.86725,-3.39417 1.75,-5.125 -0.0587,-0.85041 -0.34515,-1.65617 -0.84375,-2.375 -1.11496,-1.56924 -3.14981,-2.53967 -6.15625,-2.90625 l -0.0625,0 c -0.54249,-0.1468 -1.54803,-0.21875 -3,-0.21875 z m 1.40625,2.4375 c 2.28807,0 3.81628,0.19763 4.59375,0.59375 0.43997,0.23453 0.81898,0.59843 1.15625,1.03125 0.33725,0.43281 0.55158,0.87468 0.625,1.34375 L 148,271.14463 c -0.0148,0.60111 -0.21242,1.21481 -0.59375,1.875 -0.7627,1.34903 -2.03611,2.64278 -3.78125,3.875 -1.02678,0.73315 -1.91027,1.25456 -2.6875,1.5625 -0.77724,0.30793 -1.40548,0.5242 -1.875,0.65625 l -0.125,-0.0625 -0.15625,-0.0937 -0.0625,-0.15625 c 0.0877,-0.92426 0.3374,-2.18245 0.71875,-3.78125 0.60155,-2.53692 1.23173,-4.80498 1.90625,-6.84375 l 0.0625,-0.0625 0.1875,-0.0937 z m 171.09375,0.5625 c -0.5134,0 -1.12322,0.39526 -1.8125,1.1875 -1.43722,1.64265 -2.71062,3.43918 -3.78125,5.375 0.0439,-1.39335 0.1492,-2.5263 0.28125,-3.40625 0.0439,-0.0877 0.0642,-0.1783 0.0937,-0.28125 l 0.0937,-0.375 c 0.0734,-0.26407 0.12499,-0.53024 0.125,-0.75 -0.0591,-0.23454 -0.1991,-0.39921 -0.375,-0.53125 -0.36658,-0.27884 -0.87322,-0.4375 -1.5625,-0.4375 l -0.21875,0 c -0.0882,0 -0.19739,0.0719 -0.34375,0.21875 l 0.21885,-0.1875 c -0.77747,0.0291 -1.35218,0.40447 -1.71875,1.09375 -0.24931,0.61633 -0.46171,1.06706 -0.59375,1.375 -1.26131,3.19713 -1.96558,5.03048 -2.15625,5.5 l -0.28125,0.9375 c -0.24975,0.64542 -0.375,1.11306 -0.375,1.40625 l 0,0.0625 c 0,0.30793 0.0906,0.56842 0.28125,0.78125 0.19067,0.21282 0.44161,0.34374 0.75,0.34375 l 0.375,0 c 0.20499,-1e-5 0.40092,-0.0681 0.5625,-0.15625 0.43998,-0.71884 0.67273,-1.11627 0.6875,-1.21875 l 1.78125,-4.75 0,0.5625 0,0.9375 0,0.84375 c -0.0734,0.89472 -0.0197,1.59512 0.15625,2.09375 0.19067,0.54291 0.52877,0.8125 0.96875,0.8125 0.45474,0 0.90763,-0.19764 1.40625,-0.59375 0.13203,-0.20545 0.30932,-0.49195 0.5,-0.84375 0.39611,-0.74793 0.7749,-1.48731 1.15625,-2.25 0.51293,-0.95336 0.97887,-1.65378 1.375,-2.09375 -0.29318,1.34903 -0.4557,2.49846 -0.5,3.4375 -0.0143,0.14636 -0.0313,0.38126 -0.0312,0.71875 l 0,0.3125 c -10e-6,0.10248 0.002,0.17658 0.0312,0.25 0.0734,0.4986 0.2342,0.89046 0.46875,1.125 l 0.15625,0.15625 c 0.30793,0.16113 0.63341,0.21875 1,0.21875 0.13203,0 0.25772,-0.002 0.375,-0.0312 0.51337,-0.0882 0.78124,-0.37252 0.78125,-0.8125 l 0,-0.3125 c -10e-6,-1.52494 0.19978,-3.03712 0.625,-4.5625 0.33747,-1.17358 0.89354,-2.61121 1.65625,-4.3125 0.0586,-0.4986 -0.15936,-0.92944 -0.6875,-1.28125 -0.42522,-0.29361 -0.91151,-0.48908 -1.46875,-0.5625 z m -156.3125,0.0312 c -1.23222,0.17591 -2.05616,0.64141 -2.4375,1.375 -0.67452,1.29039 -1.03683,1.99297 -1.125,2.125 -1.02677,1.61356 -1.92697,3.19166 -2.71875,4.6875 -0.64542,1.21744 -0.96875,2.0474 -0.96875,2.53125 l 0,0.21875 c 0,0.29316 0.10183,0.52069 0.34375,0.71875 0.24192,0.19805 0.53536,0.3125 0.84375,0.3125 0.51293,0 0.89388,-0.1773 1.1875,-0.5 0.16113,-0.19068 0.34967,-0.53457 0.5625,-1.0625 0.21282,-0.52794 0.42,-0.90479 0.625,-1.125 l 0.125,0 c 0.0439,0 0.0642,-0.0169 0.0937,-0.0312 2.39057,-0.0882 3.48453,-0.125 3.25,-0.125 l 0.125,0 0.0625,0 0.0625,0.40625 0.15625,0.8125 c 0.0877,0.45474 0.23205,0.79284 0.4375,0.96875 0.16112,0.14679 0.46797,0.25601 0.9375,0.34375 0.16112,0 0.37524,-0.0538 0.625,-0.15625 0.45429,-0.19068 0.65624,-0.55084 0.65625,-1.09375 -1e-5,-0.19068 -0.0373,-0.37012 -0.125,-0.53125 -0.86565,-6.33608 -1.53094,-9.60535 -2,-9.78125 l -0.25,-0.0625 c -0.073,-0.0148 -0.1657,-0.0312 -0.3125,-0.0312 l -0.15625,0 z m 55.71875,0 c -1.23222,0.17591 -2.02491,0.64141 -2.40625,1.375 -0.67452,1.29039 -1.06808,1.99297 -1.15625,2.125 -1.02677,1.61356 -1.92697,3.19166 -2.71875,4.6875 -0.64542,1.21744 -0.96875,2.0474 -0.96875,2.53125 l 0,0.21875 c 0,0.29316 0.13308,0.52069 0.375,0.71875 0.24192,0.19805 0.50411,0.3125 0.8125,0.3125 0.51293,0 0.92513,-0.1773 1.21875,-0.5 0.16113,-0.19068 0.34967,-0.53457 0.5625,-1.0625 0.21282,-0.52794 0.42,-0.90479 0.625,-1.125 l 0.0937,0 c 0.0439,0 0.0955,-0.0169 0.125,-0.0312 2.39057,-0.0882 3.45328,-0.125 3.21875,-0.125 l 0.125,0 0.0625,0 0.0625,0.40625 0.15625,0.8125 c 0.0877,0.45474 0.23205,0.79284 0.4375,0.96875 0.16112,0.14679 0.46797,0.25601 0.9375,0.34375 0.16112,0 0.37524,-0.0538 0.625,-0.15625 0.45429,-0.19068 0.68749,-0.55084 0.6875,-1.09375 -1e-5,-0.19068 -0.0373,-0.37012 -0.125,-0.53125 -0.86565,-6.33608 -1.53094,-9.60535 -2,-9.78125 l -0.25,-0.0625 c -0.073,-0.0148 -0.19695,-0.0312 -0.34375,-0.0312 l -0.15625,0 z m -31.84375,0.0312 c -0.7627,1e-5 -1.19353,0.24968 -1.28125,0.71875 -0.16159,0.4843 -0.3757,1.24016 -0.625,2.28125 l -0.84375,3.65625 -3.59375,0.0937 c 0.30794,-1.58402 0.70365,-2.82402 1.1875,-3.71875 0.17634,-0.26407 0.25,-0.49682 0.25,-0.6875 0,-0.52815 -0.23662,-0.88659 -0.75,-1.0625 -0.22022,-0.0734 -0.48979,-0.125 -0.8125,-0.125 -0.0439,0 -0.0976,0.0165 -0.15625,0.0312 l -0.125,-0.0625 -0.3125,0.15625 c -0.38135,0.0734 -0.6674,0.28752 -0.84375,0.625 -0.0877,0.19068 -0.19523,0.54912 -0.3125,1.0625 -0.57202,2.78669 -0.98763,4.87358 -1.28125,6.28125 -0.21977,1.11494 -0.34375,1.80057 -0.34375,2.09375 0,0.1759 0.0186,0.31807 0.0625,0.40625 0.19067,0.43997 0.6414,0.65624 1.375,0.65625 l 0.0625,0 c 0.0295,-10e-6 0.0499,0.0148 0.0937,0 l 0.21875,-0.0625 c 0.4543,-0.0882 0.72217,-0.42799 0.78125,-1 0.21976,-1.02677 0.38273,-1.76787 0.5,-2.28125 0.0295,-0.13204 0.0625,-0.25603 0.0625,-0.34375 l 0.0312,-0.0312 0.875,-0.0312 c 0.23498,-0.0148 0.86686,-0.0312 1.9375,-0.0312 l 0.75,0.0937 c -0.0443,0.21976 -0.0625,0.34546 -0.0625,0.375 l -0.0312,0.1875 -0.0625,0.4375 -0.0625,1.625 c 0.33747,0.49861 0.74967,0.75 1.21875,0.75 0.1468,0 0.2742,-0.0204 0.40625,-0.0937 0.55724,-0.0439 0.95295,-0.54665 1.1875,-1.5 l 1.40625,-7.46875 c 0.20498,-0.51338 0.34931,-1.21378 0.4375,-2.09375 -0.0734,-0.63065 -0.50209,-0.9375 -1.25,-0.9375 l -0.0937,0 z m -13.78125,0.21875 c -0.79179,1e-5 -1.67164,0.29754 -2.625,0.90625 -0.95337,0.60873 -1.58525,1.27947 -1.9375,1.96875 -0.42521,0.82133 -0.63977,1.39991 -0.625,1.78125 0.0148,0.54293 0.24967,1.11548 0.71875,1.6875 0.42565,0.49861 0.92627,0.87569 1.46875,1.125 0.19067,0.0877 0.30159,0.16012 0.375,0.21875 0.14636,0.0734 0.59538,0.20081 1.34375,0.40625 0.67451,0.16113 1.06636,0.3033 1.125,0.40625 0.23453,0.11727 0.36022,0.22432 0.375,0.3125 l 0,0.0312 c -1e-5,0.27885 -0.24753,0.45784 -0.6875,0.53125 -0.1025,0.0729 -0.53675,0.125 -1.34375,0.125 -0.36658,0 -0.92095,-0.10535 -1.625,-0.28125 -0.26363,-0.14636 -0.51502,-0.30933 -0.75,-0.5 -0.16113,-0.11772 -0.35899,-0.35024 -0.59375,-0.6875 -0.23476,-0.33726 -0.43262,-0.53683 -0.59375,-0.625 0.0148,-0.0143 -0.0407,-0.0497 -0.1875,-0.0937 -0.14681,-0.0441 -0.21875,-0.0959 -0.21875,-0.125 -0.2784,0.0586 -0.38761,0.11068 -0.34375,0.125 -0.26408,0.0148 -0.48035,0.12183 -0.65625,0.3125 -0.20544,0.27885 -0.3125,0.55058 -0.3125,0.84375 0,0.42521 0.21411,0.85559 0.625,1.28125 0.52771,0.5277 1.24152,0.98433 2.1875,1.34375 0.94598,0.35941 1.83492,0.53125 2.65625,0.53125 0.19067,0 0.37898,-0.0165 0.5625,-0.0312 0.18351,-0.0148 0.69559,-0.10751 1.53125,-0.3125 0.80699,-0.32272 1.47013,-0.77173 1.96875,-1.34375 0.41043,-0.48429 0.59374,-0.91468 0.59375,-1.28125 -0.0586,-0.26408 -0.079,-0.46171 -0.0937,-0.59375 -0.39568,-0.90905 -1.20143,-1.5007 -2.375,-1.75 -0.96814,-0.36658 -1.67241,-0.61967 -2.15625,-0.78125 -0.0439,-0.0291 -0.1141,-0.0312 -0.1875,-0.0312 -0.43998,-0.0148 -0.65625,-0.35287 -0.65625,-0.96875 0,-0.2493 0.0538,-0.43217 0.15625,-0.59375 0.52815,-0.8361 1.21207,-1.40911 2.0625,-1.6875 0.90949,0 1.58911,0.21456 2,0.625 0.5277,0.42565 0.89001,0.66012 1.125,0.71875 l 0.125,0 c 0.67495,0 0.99999,-0.35844 1,-1.0625 -10e-6,-0.41089 -0.1257,-0.71945 -0.375,-0.96875 -0.13205,-0.13203 -0.45322,-0.36093 -0.9375,-0.625 -0.98247,-0.55724 -1.81243,-0.84977 -2.53125,-0.9375 -0.0734,0 -0.14364,-0.0143 -0.1875,0 z m 101.875,0 c -0.25849,0.055 -0.50962,0.21763 -0.71875,0.4375 -0.61589,0.67452 -1.27402,1.42129 -2,2.25 -0.72599,0.82871 -1.25456,1.47014 -1.5625,1.96875 -0.27885,-0.70405 -0.55058,-1.38969 -0.84375,-2.09375 -0.39612,-0.89428 -0.80831,-1.52103 -1.21875,-1.84375 -0.20544,-0.0586 -0.42171,-0.0625 -0.65625,-0.0625 -0.46952,1e-5 -0.80933,0.0724 -1,0.21875 -0.23454,0.17636 -0.34375,0.43116 -0.34375,0.8125 l 0,0.0937 c 0,0.27841 0.12569,0.67412 0.375,1.1875 0.60111,0.89473 1.0874,2.22702 1.46875,4.03125 l -0.65625,3.75 c 0.0295,0.35225 0.24194,0.62398 0.59375,0.84375 l 0.125,0.15625 c 0.54248,0.20499 0.95467,0.31249 1.21875,0.3125 0.5277,-10e-6 0.90307,-0.50493 1.09375,-1.53125 0.27884,-1.37902 0.47819,-2.38628 0.625,-3.03125 0.11726,-0.46952 0.17272,-0.73523 0.1875,-0.75 0.0291,-0.1025 0.17171,-0.31877 0.40625,-0.65625 0.8804,-1.2613 2.1204,-2.64563 3.71875,-4.15625 l 0.1875,-0.125 c 0.39611,-0.29317 0.57726,-0.5983 0.5625,-0.90625 0.0138,0.0194 0.0403,0.0202 0.0625,0.0312 l -0.21875,-0.4375 c -0.19068,-0.3518 -0.58424,-0.49999 -1.15625,-0.5 -0.0916,0 -0.16384,-0.0183 -0.25,0 z m 6.3125,0 c -0.79179,1e-5 -1.67164,0.29754 -2.625,0.90625 -0.95337,0.60873 -1.6165,1.27947 -1.96875,1.96875 -0.42521,0.82133 -0.63977,1.39991 -0.625,1.78125 0.0148,0.54293 0.28093,1.11548 0.75,1.6875 0.42565,0.49861 0.89502,0.87569 1.4375,1.125 0.19067,0.0877 0.33284,0.16012 0.40625,0.21875 0.14636,0.0734 0.59538,0.20081 1.34375,0.40625 0.67451,0.16113 1.03511,0.3033 1.09375,0.40625 0.23453,0.11727 0.36022,0.22432 0.375,0.3125 l 0,0.0312 c -10e-6,0.27885 -0.21628,0.45784 -0.65625,0.53125 -0.1025,0.0729 -0.568,0.125 -1.375,0.125 -0.36658,0 -0.8897,-0.10535 -1.59375,-0.28125 -0.26363,-0.14636 -0.51502,-0.30933 -0.75,-0.5 -0.16113,-0.11772 -0.35899,-0.35024 -0.59375,-0.6875 -0.23476,-0.33726 -0.43262,-0.53683 -0.59375,-0.625 0.0148,-0.0143 -0.0719,-0.0497 -0.21875,-0.0937 -0.14681,-0.0441 -0.21875,-0.0959 -0.21875,-0.125 -0.2784,0.0586 -0.38761,0.11068 -0.34375,0.125 -0.26408,0.0148 -0.48035,0.12183 -0.65625,0.3125 -0.20544,0.27885 -0.3125,0.55058 -0.3125,0.84375 0,0.42521 0.21411,0.85559 0.625,1.28125 0.52771,0.5277 1.27277,0.98433 2.21875,1.34375 0.94598,0.35941 1.80367,0.53125 2.625,0.53125 0.19067,0 0.37898,-0.0165 0.5625,-0.0312 0.18351,-0.0148 0.6956,-0.10751 1.53125,-0.3125 0.807,-0.32272 1.47013,-0.77173 1.96875,-1.34375 0.41043,-0.48429 0.62499,-0.91468 0.625,-1.28125 -0.0586,-0.26408 -0.11024,-0.46171 -0.125,-0.59375 -0.39568,-0.90905 -1.17018,-1.5007 -2.34375,-1.75 -0.96814,-0.36658 -1.70366,-0.61967 -2.1875,-0.78125 -0.0439,-0.0291 -0.0829,-0.0312 -0.15625,-0.0312 -0.43998,-0.0148 -0.6875,-0.35287 -0.6875,-0.96875 0,-0.2493 0.0538,-0.43217 0.15625,-0.59375 0.52815,-0.8361 1.24333,-1.40911 2.09375,-1.6875 0.90949,0 1.55786,0.21456 1.96875,0.625 0.5277,0.42565 0.92126,0.66012 1.15625,0.71875 l 0.0937,0 c 0.67495,0 0.99999,-0.35844 1,-1.0625 -1e-5,-0.41089 -0.1257,-0.71945 -0.375,-0.96875 -0.13205,-0.13203 -0.42197,-0.36093 -0.90625,-0.625 -0.98247,-0.55724 -1.84368,-0.84977 -2.5625,-0.9375 -0.0734,0 -0.11239,-0.0143 -0.15625,0 z m 12.46875,0.1875 c -0.0882,1e-5 -0.19353,0.0169 -0.28125,0.0312 l -0.375,0 c -0.82133,0.0148 -1.49049,0.0351 -2.0625,0.0937 l -1.25,0 c -0.11772,10e-6 -0.29887,10e-6 -0.5625,0 -0.24931,-0.0148 -0.43046,-0.0312 -0.5625,-0.0312 l -0.28125,0 c -0.1759,1e-5 -0.39433,0.033 -0.6875,0.0625 -0.36658,0.0291 -0.63273,0.0312 -0.75,0.0312 -0.45475,0.0591 -0.65625,0.36378 -0.65625,0.90625 0,0.48385 0.0944,0.87956 0.34375,1.1875 0.3518,0.11772 0.81775,0.1875 1.375,0.1875 l 1.59375,0 -1.375,6.84375 c -0.13204,0.67496 -0.22262,1.05375 -0.28125,1.15625 0,0.2493 0.0277,0.41204 0.0937,0.5 0.066,0.0879 0.0937,0.14148 0.0937,0.15625 l 0.1875,0.15625 c 0.14681,0.26363 0.46842,0.40625 0.9375,0.40625 0.33748,0 0.62569,-0.098 0.875,-0.28125 0.2493,-0.18329 0.35636,-0.44377 0.3125,-0.78125 0.67451,-3.03555 1.14603,-5.30144 1.46875,-6.8125 0.1468,-0.63065 0.34057,-1.0983 0.53125,-1.40625 l 3.96885,-0.21875 c 0.48383,-0.17635 0.71874,-0.51444 0.71875,-0.96875 -10e-6,-0.17634 -0.0368,-0.33886 -0.125,-0.5 -0.23455,-0.48384 -0.6489,-0.71874 -1.25,-0.71875 -0.13205,10e-6 -0.27422,0.002 -0.40625,0.0312 -0.14682,10e-6 -0.3557,0.0146 -0.65625,0 -0.30056,-0.0145 -0.52593,-0.0312 -0.6875,-0.0312 l -0.25,0 z m -57.25,0.0312 -1.21875,0.21875 c -0.43998,1.14404 -0.67489,1.8466 -0.71875,2.125 0,0.0443 -0.0165,0.0976 -0.0312,0.15625 -0.76269,2.74238 -1.2841,5.20806 -1.5625,7.4375 0.0148,0.1759 0.0664,0.33671 0.125,0.46875 l -0.0937,-0.15625 c 0.0439,0.36657 0.1899,0.65478 0.46875,0.875 l 1.625,0.53125 c 0.39567,0 0.79138,-0.0204 1.1875,-0.0937 l 0.0937,0.0937 0.21875,-0.1875 c 0.82132,-0.0586 1.61059,-0.23979 2.34375,-0.5625 1.40811,-0.60112 2.57788,-1.49744 3.53125,-2.65625 1.08495,-1.30517 1.57124,-2.67086 1.46875,-4.09375 -0.0882,-1.23176 -0.68324,-2.18742 -1.8125,-2.90625 -0.89474,-0.55724 -2.04461,-0.93216 -3.4375,-1.09375 -0.39612,-0.11726 -1.13164,-0.15624 -2.1875,-0.15625 z m -43.40625,0.0312 c -0.38135,10e-6 -0.72331,0.0186 -1.03125,0.0625 -0.61589,10e-6 -1.11866,0.30685 -1.5,0.9375 -0.22022,0.39612 -0.32898,0.6991 -0.34375,0.875 l -0.78125,2.9375 c -0.21977,0.85087 -0.38273,1.54956 -0.5,2.0625 l -0.3125,1.25 c -0.16113,0.67451 -0.25,1.14001 -0.25,1.375 0,0.0877 0.0165,0.16011 0.0312,0.21875 0,0.52815 0.10921,0.90307 0.34375,1.09375 0.11727,0.11726 0.22648,0.19136 0.34375,0.25 0.45475,0.35225 1.04594,0.54817 1.75,0.5625 2.03876,0.0295 3.92973,-0.48971 5.71875,-1.53125 1.24697,-0.71838 1.87499,-1.49118 1.875,-2.3125 -1e-5,-0.33748 -0.12526,-0.64433 -0.375,-0.9375 -0.40369,-0.58087 -0.91012,-0.98438 -1.53125,-1.25 1.61124,-0.71477 2.47973,-1.46585 2.59375,-2.25 0.0295,-0.11771 0.0625,-0.27807 0.0625,-0.46875 -1e-5,-0.38134 -0.14047,-0.74023 -0.375,-1.0625 -0.86565,-1.21744 -2.77094,-1.81249 -5.71875,-1.8125 z m 107.1875,0.0937 c -0.76269,10e-6 -1.21171,0.002 -1.34375,0.0312 -0.54248,0.10295 -0.86967,0.65903 -1.03125,1.65625 l -1.4375,8.71875 c 0.30794,0.21976 0.61308,0.46728 0.90625,0.6875 0.42566,0.30794 0.74683,0.4375 0.9375,0.4375 0.2493,0 0.79106,-0.0719 1.65625,-0.21875 l 4.875,-0.65625 c 0.4252,-0.0586 0.70432,-0.16376 0.84375,-0.28125 0.13941,-0.1175 0.21874,-0.33354 0.21875,-0.65625 -10e-6,-0.13204 -0.033,-0.31149 -0.0625,-0.53125 l -0.21875,0 c -0.13205,-0.1025 -0.3132,-0.19137 -0.5625,-0.25 -0.0291,0 -0.22889,-0.0182 -0.625,-0.0625 -0.27841,0 -0.59787,0.0182 -0.90625,0.0625 -0.39568,0.0291 -0.68433,0.0625 -0.875,0.0625 l -0.125,0 c -1.42244,0.1025 -2.49993,0.17488 -3.21875,0.21875 0.0148,-0.13159 0.0499,-0.27979 0.0937,-0.5 0.21237,-1.04932 0.38378,-1.71825 0.5,-2.09375 l 0.21875,0 0.1875,0 0.15625,0 0.3125,0 c 0.45475,0 1.13651,-0.0683 2.03125,-0.15625 0.89472,-0.088 1.56001,-0.125 2,-0.125 0.58678,-0.0882 0.87499,-0.4115 0.875,-0.96875 l 0,-0.3125 c -0.11728,-0.46952 -0.63824,-0.71875 -1.5625,-0.71875 l -1.75,0 c -0.27885,0 -0.53195,-0.0165 -0.78125,-0.0312 l -0.75,0 c -0.19068,-0.0148 -0.34933,-0.0169 -0.4375,-0.0312 l 0.0937,-0.34375 c 0.29361,-1.15836 0.45227,-1.75171 0.4375,-1.78125 1.73082,-0.11726 3.18709,-0.1875 4.375,-0.1875 l 0.59375,0 c 0.14635,0 0.23909,-0.0351 0.3125,-0.0937 0.51337,-0.13203 0.78124,-0.36865 0.78125,-0.75 l 0,-0.21875 c -0.14682,-0.30794 -0.34661,-0.49125 -0.625,-0.59375 -0.17591,-0.0734 -0.4806,-0.1267 -0.90625,-0.15625 -1.61312,-0.10249 -2.92551,-0.15624 -3.9375,-0.15625 l -1.25,0 z m -73.3125,0.0312 c -0.79224,10e-6 -1.35218,0.0906 -1.71875,0.28125 l -0.34375,0.21875 c -0.26408,0.30795 -0.42273,0.48694 -0.4375,0.53125 -0.0586,0.19068 -0.1141,0.40308 -0.1875,0.59375 l -1.3125,5.875 c -0.13204,0.64497 -0.2391,1.11479 -0.3125,1.4375 -0.1759,0.82132 -0.28125,1.30546 -0.28125,1.4375 l 0,0.0937 c 0,0.39611 0.32333,0.77319 0.96875,1.125 0.1759,0.10294 0.35535,0.15624 0.53125,0.15625 0.54292,-10e-6 0.8125,-0.30685 0.8125,-0.9375 0.0586,-0.0882 0.1475,-0.26718 0.25,-0.53125 0.39611,-1.07064 0.68432,-1.8781 0.875,-2.40625 0.70405,0.60156 1.08284,0.94136 1.15625,1 1.11449,0.96813 1.70397,1.45442 1.71875,1.46875 0.61588,0.48429 1.2482,0.86307 1.9375,1.15625 0.57201,-0.19068 0.91011,-0.42558 0.96875,-0.71875 0.2202,-0.0882 0.31249,-0.23035 0.3125,-0.40625 -1e-5,-0.33749 -0.39528,-0.77173 -1.1875,-1.34375 -1.18791,-0.85042 -1.87013,-1.33671 -2.03125,-1.46875 -0.54293,-0.26408 -0.95684,-0.45785 -1.25,-0.53125 l 0.28125,-0.3125 c 0.10249,0.0143 0.21171,-0.004 0.34375,-0.0625 0.0148,-0.0143 0.1125,-0.0423 0.28125,-0.0937 0.16873,-0.0515 0.26692,-0.11023 0.28125,-0.125 2.47874,-0.67452 3.86478,-1.71688 4.1875,-3.125 -0.0877,-0.73315 -0.18786,-1.18626 -0.3125,-1.40625 -0.12466,-0.21999 -0.47572,-0.55786 -1.0625,-0.96875 -0.85088,-0.39566 -1.64902,-0.65659 -2.375,-0.78125 -0.726,-0.12465 -1.43401,-0.15624 -2.09375,-0.15625 z m -20.28125,0.0625 c -1.54016,0.17591 -2.60287,0.4607 -3.21875,0.8125 -0.52771,0.29362 -0.88615,0.49297 -1.0625,0.625 -0.89429,0.63066 -1.64867,1.49187 -2.25,2.5625 -0.60134,1.07063 -0.90625,2.13164 -0.90625,3.1875 l 0,0.25 c 0,0.0729 0.0169,0.13057 0.0312,0.21875 0.13204,0.63065 0.22262,0.99125 0.28125,1.09375 l 0.375,0.59375 c 0.38134,0.63065 0.85116,1.11478 1.4375,1.4375 0.96813,0.52815 2.15267,0.78124 3.53125,0.78125 1.56924,-1e-5 2.73901,-0.32333 3.53125,-0.96875 0.87995,-0.71838 1.57319,-1.6279 2.09375,-2.75 0.52053,-1.12211 0.78124,-2.24573 0.78125,-3.375 l 0,-0.375 c -1e-5,-0.63065 -0.1257,-1.17196 -0.375,-1.65625 -0.7627,-1.42243 -1.82371,-2.24682 -3.1875,-2.4375 l -1.0625,0 z m 20.5,1.65625 c 1.00979,-0.0839 1.83899,0.11011 2.5,0.5625 0.24994,0.26225 0.61652,0.66155 0.625,0.6875 -0.0143,0.0295 -0.0165,0.0334 -0.0312,0.0625 l -0.125,0.28125 -0.5625,0.65625 -0.0312,0.0312 c -0.27592,0.1322 -0.53425,0.23568 -0.6875,0.3125 -1.04154,0.43998 -1.74366,0.67273 -2.125,0.6875 -0.19068,0.16113 -0.34978,0.17977 -0.4375,0.0625 -0.0586,-0.0734 -0.0937,-0.21558 -0.0937,-0.40625 0,-0.79178 0.19592,-1.62004 0.5625,-2.5 l 0.40625,-0.4375 z m -19.96875,0.21875 c 0.6011,0 1.01501,0.32162 1.25,0.9375 0.2493,0.68929 0.30691,1.39356 0.21875,2.15625 -0.14682,1.27608 -0.59799,2.38652 -1.375,3.28125 -0.86564,0.99723 -1.90801,1.50171 -3.125,1.53125 -0.16158,0 -0.4515,-0.12354 -0.90625,-0.34375 -0.41044,-0.13204 -0.71342,-0.31535 -0.875,-0.59375 -0.13204,-0.22022 -0.22262,-0.59514 -0.28125,-1.09375 0.10294,-1.05586 0.53332,-2.15198 1.28125,-3.28125 1.11449,-1.73082 2.38961,-2.59375 3.8125,-2.59375 z m -12.28125,0.125 c 0.3227,0 0.66251,0.0521 1,0.125 0.46951,0.13204 0.71874,0.32752 0.71875,0.5625 -1e-5,0.16114 -0.15866,0.34445 -0.4375,0.59375 -0.46953,0.41089 -1.06459,0.7674 -1.8125,1.03125 -0.72402,0.25542 -1.38588,0.36684 -2,0.375 0.27884,-1.20267 0.53194,-1.97717 0.78125,-2.34375 l 0.125,-0.125 c 0.5277,-0.14636 1.05297,-0.21875 1.625,-0.21875 z m 42.5,0 0.0312,0.125 0.0312,-0.0312 0.0625,-0.0312 c 1.7156,0 2.77876,0.17729 3.21875,0.5 0.58678,0.42521 0.92659,0.9115 1,1.46875 -0.0291,0.87996 -0.64109,1.8521 -1.84375,2.9375 -1.012,0.92427 -2.0171,1.62081 -3,2.03125 -0.48959,0.19347 -0.85911,0.28379 -1.15625,0.375 0.0302,-0.30927 0.0868,-0.67401 0.15625,-1.0625 0.29317,-1.55448 0.76298,-3.40817 1.4375,-5.59375 0.0882,-0.29317 0.10636,-0.52807 0.0625,-0.71875 z m -19.5625,1.25 0.375,3.15625 0,0.0312 -2.21875,0 1.84375,-3.1875 z m -55.71875,0.0625 0.375,3.09375 -0.0312,0.0312 -2.21875,0 1.875,-3.125 z m 31.6875,3.375 c 0.80655,0 1.41809,0.15865 1.84375,0.4375 0.0586,0.0586 0.11067,0.0959 0.125,0.125 -0.10251,0.36702 -0.58664,0.76445 -1.4375,1.21875 -1.02633,0.55769 -1.76571,0.87886 -2.25,0.9375 -0.24931,0.10249 -0.57309,0.13977 -0.96875,0.125 l 0.0312,-0.25 0.59375,-2.3125 c 0.76269,-0.1759 1.44661,-0.28125 2.0625,-0.28125 z"
       id="path2825"
       style="font-size:100px;font-style:normal;font-variant:normal;font-weight:normal;font-stretch:normal;text-align:start;line-height:125%;writing-mode:lr-tb;text-anchor:start;fill:#000000;fill-opacity:1;stroke:none;font-family:Jivetalk;-inkscape-font-specification:Jivetalk" />
  </g>
</svg>
