<?xml version="1.0" encoding="UTF-8" standalone="no"?>
<!-- Created with Inkscape (http://www.inkscape.org/) -->

<svg
   xmlns:dc="http://purl.org/dc/elements/1.1/"
   xmlns:cc="http://creativecommons.org/ns#"
   xmlns:rdf="http://www.w3.org/1999/02/22-rdf-syntax-ns#"
   xmlns:svg="http://www.w3.org/2000/svg"
   xmlns="http://www.w3.org/2000/svg"
   xmlns:sodipodi="http://sodipodi.sourceforge.net/DTD/sodipodi-0.dtd"
   xmlns:inkscape="http://www.inkscape.org/namespaces/inkscape"
   inkscape:version="0.48.0 r9654"
   version="1.1"
   id="svg2"
   height="16"
   width="16"
   sodipodi:docname="outstaller.svg"
   inkscape:export-xdpi="360"
   inkscape:export-ydpi="360">
  <sodipodi:namedview
     id="base"
     pagecolor="#ffffff"
     bordercolor="#666666"
     borderopacity="1.0"
     inkscape:pageopacity="0.0"
     inkscape:pageshadow="2"
     inkscape:zoom="32"
     inkscape:cx="11.804405"
     inkscape:cy="7.1337371"
     inkscape:document-units="px"
     inkscape:current-layer="layer1"
     showgrid="false"
     inkscape:window-width="1440"
     inkscape:window-height="874"
     inkscape:window-x="-4"
     inkscape:window-y="-4"
     inkscape:window-maximized="1"
     inkscape:snap-global="true">
    <inkscape:grid
       snapvisiblegridlinesonly="true"
       enabled="true"
       visible="true"
       empspacing="5"
       id="grid2985"
       type="xygrid" />
  </sodipodi:namedview>
  <defs
     id="defs4" />
  <metadata
     id="metadata7">
    <rdf:RDF>
      <cc:Work
         rdf:about="">
        <dc:format>image/svg+xml</dc:format>
        <dc:type
           rdf:resource="http://purl.org/dc/dcmitype/StillImage" />
        <dc:title></dc:title>
      </cc:Work>
    </rdf:RDF>
  </metadata>
  <g
     transform="translate(0,-1036)"
     id="layer1"
     inkscape:groupmode="layer"
     inkscape:label="Layer 1">
    <path
       sodipodi:nodetypes="ccccc"
       style="fill:#28170b;fill-opacity:1;stroke:none"
       d="M 11,1045 14,1043 15,1042 13,1039 z"
       id="path3779"
       inkscape:connector-curvature="0" />
    <path
       inkscape:connector-curvature="0"
       id="path3777"
       d="M 5.525,1045 2,1043 1,1042 3,1039 z"
       style="fill:#28170b;fill-opacity:1;stroke:none"
       sodipodi:nodetypes="ccccc" />
    <path
       sodipodi:nodetypes="ccccc"
       style="fill:#502d16;fill-opacity:1;stroke:none"
       d="M 4,1048 12,1048 13,1039 3,1039 z"
       id="path3757"
       inkscape:connector-curvature="0" />
    <path
       sodipodi:nodetypes="ccccc"
       inkscape:connector-curvature="0"
       id="path3755"
       d="M 1,1042 2,1051 14,1051 15,1042 z"
       style="fill:#784421;fill-opacity:1;stroke:none" />
    <g
       id="g5042"
       transform="translate(0,1036)">
      <path
         style="fill:#008000;fill-opacity:1;stroke:none"
         d="M 7,7 7,4 5,4 8,0 11,4 9,4 9,7 z"
         id="path5031"
         inkscape:connector-curvature="0"
         sodipodi:nodetypes="cccccccc" />
      <rect
         style="fill:#784421;fill-opacity:1;fill-rule:nonzero;stroke:none"
         id="rect5040"
         width="2.539"
         height="1.148"
         x="6.848"
         y="6" />
    </g>
    <path
       id="text2987"
       d="m 13.488001,1042.4063 c 0,0 -1.245517,1.0756 -1.245517,1.0756 0,0 -0.09609,1.2768 -0.09609,1.2768 0,0 -0.50762,0 -0.50762,0 0,0 -0.08675,1.314 -0.08675,1.314 0,0 0.495483,0 0.495483,0 0,0 -0.190247,2.528 -0.190247,2.528 -0.03863,0.5133 -0.05466,0.8498 -0.03946,1.0164 0.001,0.2288 0.04458,0.3802 0.09801,0.5181 0.06326,0.1248 0.155585,0.2242 0.294089,0.3108 0.139103,0.074 0.286864,0.1477 0.468355,0.1477 0.290385,0 0.5731,-0.098 0.815523,-0.2343 0,0 0.03433,-1.0637 0.03433,-1.0637 -0.186545,0.09 -0.333973,0.1676 -0.426807,0.1676 -0.06498,0 -0.126159,-0.038 -0.167572,-0.09 -0.04275,-0.039 -0.06195,-0.1292 -0.06503,-0.1941 -0.0018,-0.078 0.0045,-0.3402 0.04768,-0.7919 0,0 0.221201,-2.3145 0.221201,-2.3145 0,0 0.743226,0 0.743226,0 0,0 0.143791,-1.314 0.143791,-1.314 0,0 -0.76143,0 -0.76143,0 0,0 0.224842,-2.3524 0.224842,-2.3524 0,0 0,0 0,0 m -9.4372712,2.2092 c -0.413262,0 -0.76429,0.1555 -1.0739163,0.4306 -0.3055365,0.2724 -0.5078427,0.6611 -0.6343238,1.1625 -0.123175,0.4921 -0.1714098,0.9571 -0.1157421,1.4581 0.072593,0.6533 0.2289892,1.1985 0.4427372,1.629 0.2110831,0.4233 0.4793672,0.7393 0.8154456,0.9519 0.3332146,0.2107 0.6786825,0.3461 1.0244223,0.3461 0.5571765,0 0.9804329,-0.2591 1.327502,-0.7731 0.3529713,-0.5378 0.5360915,-1.2199 0.508818,-2.0713 -0.027742,-0.8661 -0.2423011,-1.6297 -0.6652537,-2.2328 -0.432501,-0.6152 -0.9904564,-0.901 -1.6296892,-0.901 0,0 0,0 0,0 m 3.0560155,0.1432 c 0,0 0.061851,3.7622 0.061851,3.7622 0.00846,0.5148 0.068548,0.891 0.1634366,1.1727 0.094899,0.2911 0.2338103,0.5166 0.4366537,0.6658 0.2025435,0.1606 0.4294655,0.2343 0.6817376,0.2343 0.2486423,0 0.4868777,-0.074 0.7142026,-0.2343 0.2293801,-0.1492 0.4157481,-0.3747 0.5644751,-0.6658 0,0 -0.027124,0.7894 -0.027124,0.7894 0,0 0.9404225,0 0.9404225,0 0,0 0.306012,-5.7243 0.306012,-5.7243 0,0 -1.14519,0 -1.14519,0 0,0 -0.083547,2.5611 -0.083547,2.5611 -0.026911,0.8249 -0.050123,1.3341 -0.1082435,1.5323 -0.057671,0.1967 -0.1641392,0.3529 -0.3055684,0.4824 -0.1419292,0.1417 -0.2954155,0.2058 -0.4687482,0.2058 -0.1529406,0 -0.2773726,-0.064 -0.3757566,-0.1671 -0.098879,-0.09 -0.1642175,-0.2332 -0.2016899,-0.4029 -0.036784,-0.1709 -0.055722,-0.6368 -0.052741,-1.428 0,0 0.01049,-2.7836 0.01049,-2.7836 0,0 -1.1106723,0 -1.1106723,0 0,0 0,0 0,0 m -2.9579381,1.2216 c 0.2848975,0 0.5297163,0.1378 0.7404404,0.456 0.2081584,0.313 0.3470906,0.7575 0.3773877,1.313 0.029183,0.5707 -0.057944,1.0237 -0.2243598,1.2995 -0.163821,0.2857 -0.3767573,0.4145 -0.6431894,0.4145 -0.2655038,0 -0.4960204,-0.1288 -0.7018323,-0.4145 -0.2079288,-0.2758 -0.3297768,-0.7288 -0.3813339,-1.2995 -0.051446,-0.5696 -0.00618,-1 0.1589585,-1.313 0.1659895,-0.3182 0.3900241,-0.456 0.6739288,-0.456 0,0 0,0 0,0"
       style="font-size:8px;font-style:normal;font-variant:normal;font-weight:bold;font-stretch:normal;text-align:start;line-height:125%;letter-spacing:0px;word-spacing:0px;writing-mode:lr-tb;text-anchor:start;fill:#000000;fill-opacity:1;stroke:none;font-family:Sans;-inkscape-font-specification:Sans Bold"
       inkscape:connector-curvature="0" />
  </g>
</svg>
