<?xml version="1.0" encoding="UTF-8" standalone="no"?>
<!-- Created with Inkscape (http://www.inkscape.org/) -->

<svg
   xmlns:svg="http://www.w3.org/2000/svg"
   xmlns="http://www.w3.org/2000/svg"
   version="1.1"
   width="190"
   height="125"
   id="svg2">
  <defs
     id="defs4" />
  <g
     transform="translate(-130.28125,-157.56645)"
     id="layer1">
    <path
       d="m 281.6562,159.91032 c -2.26488,6e-5 -4.40775,0.1396 -6.40625,0.40625 l -0.1875,0 c -3.26515,6e-5 -5.90775,1.74959 -7.90625,5.21875 -1.39878,2.40246 -2.09377,4.01243 -2.09375,4.8125 l -4.90625,18.90625 c -1.33166,5.20388 -2.41515,9.5308 -3.28125,13 l -2,8.21875 c -0.99004,3.9601 -1.49169,6.52571 -1.5625,7.84375 -6.10712,-0.0967 -20.85291,-0.82326 -34.34375,-1.09375 -19.46488,-0.39026 -30.77831,-0.2455 -41.25,0.5 l -10.5,0.75 c -1.33264,0.0651 -3.00012,0.17824 -5,0.3125 l -7.375,0.5 -1.625,-1 0,-0.3125 38.625,-36.375 c 4.46771,-4.19917 7.32822,-7.03307 8.59375,-8.5 3.06796,-3.3996 4.54046,-6.15163 4.40625,-8.21875 -0.26659,-2.53289 -3.15835,-4.032 -8.625,-4.5 -0.46596,6e-5 -1.18658,0.0267 -2.1875,0.0937 -1.20042,0.13432 -2.11602,0.21881 -2.78125,0.21875 -0.79962,6e-5 -1.52488,6e-5 -2.125,0 l -9.1875,0.40625 c -1.53406,0.0673 -2.64625,0.065 -3.3125,0.0312 -0.66635,-0.0335 -1.4146,-0.0312 -2.28125,-0.0312 -0.26657,6e-5 -3.32466,0.19505 -9.125,0.59375 -4.19924,0.26658 -8.42117,0.51275 -12.6875,0.78125 -5.40163,0.46595 -9.53965,1.13336 -12.40625,2 -2.26645,0.73252 -3.40626,1.81703 -3.40625,3.21875 -1e-5,0.33169 0.0845,0.71962 0.21875,1.1875 l 0,0.40625 c 0,3.13319 0.61214,4.91379 1.8125,5.3125 1.59911,1.26753 3.34846,1.87504 5.28125,1.875 1.20035,4e-5 2.72606,-0.10843 4.59375,-0.375 0.59813,4e-5 1.95954,-0.11307 4.09375,-0.3125 8.40045,-0.80154 14.5671,-1.40897 20.125,-2.6875 1.54893,0.0474 3.40942,-0.20133 4.5,-0.3125 1.33256,-0.0671 2.58085,0.26762 3.78125,1 l 0,0.5 -41.5,38 c -2.19931,1.99993 -3.80893,3.80511 -4.875,5.40625 -1.60116,2.26644 -2.40625,4.29525 -2.40625,6.09375 l 0,0.40625 c -0.33162,1.13321 -0.5,2.1599 -0.5,3.09375 0,0.53303 0.24821,1.22704 0.78125,2.09375 1.46687,1.60114 4.44051,2.3796 8.90625,2.3125 2.40071,-0.0672 7.20612,-0.39984 14.40625,-1 6.06686,-0.53304 25.78668,-2.18039 40.8125,-2.75 15.58408,-0.59077 35.4382,0.84544 66.375,1.125 1.39379,0.0264 6.34055,0.33297 10.65625,0 4.3157,-0.33298 8.69454,0.11391 17.15625,-2.6875 9.92545,-3.26768 16.98913,-7.68101 21.1875,-13.21875 1.26451,-1.66741 1.9328,-3.3857 2,-5.1875 0.067,-1.73461 -0.62796,-3.45755 -2.09375,-5.125 -2.79758,-4.00262 -6.46832,-6.74614 -11,-8.28125 l -0.0937,-0.21875 -0.0937,-1.09375 0.1875,-0.3125 c 2.53316,-1.06884 5.03586,-2.20706 7.5,-3.40625 4.46255,-2.20285 7.44034,-4.69853 8.90625,-7.5 0.5326,-1.13399 0.86575,-2.13266 1,-3 0.19917,-0.60055 0.28118,-1.43313 0.28125,-2.5 -7e-5,-4.00259 -2.27826,-7.47039 -6.875,-10.40625 -4.06418,-2.60186 -9.09824,-4.29357 -15.09375,-5.09375 -5.26164,-0.73492 -10.29571,-1.12495 -15.09375,-1.125 z m 11.09375,10.375 c 0.49544,0.002 1.00875,0.0376 1.5,0.0625 4.26333,0.19957 7.46101,0.94573 9.59375,2.28125 1.79923,1.20125 2.54754,2.56076 2.28125,4.09375 -0.26842,1.53515 -1.34987,3.14512 -3.28125,4.8125 -3.13099,2.80149 -7.19125,5.10683 -12.1875,6.875 -4.99633,1.76823 -9.6429,2.62505 -13.90625,2.625 l -0.59375,-0.28125 -0.5,-0.5 -0.3125,-0.8125 c 0.66682,-2.86859 1.25315,-5.1716 1.71875,-6.90625 0.93316,-3.93745 2.24114,-7.09959 3.90625,-9.5 l 1.09375,-1.09375 c 3.6735,-1.10801 7.21942,-1.67046 10.6875,-1.65625 z m -47.875,23.5 c -2.28899,0.31342 -3.51404,2.58974 -4.9375,4.15625 -1.93852,2.43326 -3.68237,5.02736 -5.1875,7.75 0.10974,-2.59796 0.17378,-5.2519 0.9375,-7.75 0.73444,-2.12862 -2.00676,-2.87674 -3.625,-2.71875 -0.51063,-0.0386 -1.03219,0.70906 -0.4375,0.0312 -1.80724,-0.048 -3.1295,1.49607 -3.5625,3.125 -1.62696,3.97338 -3.23589,7.94153 -4.71875,11.96875 -0.39564,1.69899 -1.72467,3.59696 -0.46875,5.21875 0.96059,0.80185 3.1253,0.95766 3.5625,-0.53125 1.14587,-2.01343 1.74305,-4.30112 2.625,-6.4375 l 1.375,-3.625 c 0.0338,2.24613 -0.0454,4.47686 0,6.71875 -0.21099,2.19972 2.12741,3.86377 3.9375,2.28125 1.53671,-1.15467 2.00084,-3.24378 3,-4.84375 0.88641,-1.78506 1.83922,-3.55249 3.15625,-5.0625 -0.57617,2.92089 -1.24702,5.92672 -0.84375,8.90625 0.12944,1.47732 1.44365,2.55513 2.90625,2.40625 1.82819,0.29547 2.31577,-1.49674 2.09375,-2.90625 0.0613,-5.38963 1.94851,-10.52941 4.15625,-15.375 0.17219,-2.07346 -2.28244,-3.06133 -3.96875,-3.3125 z m -29.09375,1.28125 c -0.19194,-0.002 -0.36761,0.0135 -0.5625,0.0312 l -0.78125,0 c -2.74443,0.2788 -5.55338,0.86178 -7.78125,2.59375 -3.51033,2.57732 -6.02171,6.90585 -5.6875,11.34375 0.313,2.23994 1.70781,4.30665 3.625,5.5 3.23135,1.76634 7.20496,1.94775 10.71875,1 3.42066,-1.16105 5.55976,-4.50786 6.75,-7.75 0.81255,-2.53106 1.18661,-5.39055 0.25,-7.9375 -1.13092,-2.57116 -3.6521,-4.7554 -6.53125,-4.78125 z m -0.40625,3.4375 c 2.12556,-0.0384 2.69228,2.41154 2.78125,4.09375 0.18962,4.38132 -2.52009,9.24644 -7.0625,10.125 -1.70055,0.31154 -4.00477,-0.43966 -4.6875,-2.15625 -0.74664,-2.2754 0.4919,-4.62224 1.5625,-6.59375 1.58203,-2.69279 4.00862,-5.49311 7.40625,-5.46875 z m 71.1875,1.65625 c 5.46285,3e-5 9.662,0.97215 12.59375,2.90625 0.66476,0.33392 1.21984,1.05351 1.6875,2.1875 l 0,0.5 c -0.40056,1.66744 -1.54197,3.27743 -3.40625,4.8125 -3.73075,3.06816 -5.56135,5.38166 -11.53125,6.8125 -2.92844,0.70188 -8.72106,1.44083 -18.09375,1.0625 l 0.1875,-1.28125 3.75,-14.8125 0.90625,-0.40625 c 5.06438,-1.20117 9.70994,-1.78122 13.90625,-1.78125 z m -124.78125,33.15625 -1.9375,0.34375 c -0.7599,1.96047 -1.17005,3.17654 -1.25,3.65625 -1e-5,0.13979 -0.0334,0.2659 -0.0937,0.40625 -0.3595,1.30006 -0.68861,2.51614 -0.96875,3.65625 -0.88013,3.43995 -1.52869,6.92873 -1.96875,10.46875 l 0,0.4375 0.0312,0.0312 c 0.0598,0.54015 0.276,0.95032 0.65625,1.25 l 2.875,0.96875 c 0.83983,0 1.63524,-0.0901 2.375,-0.25 l 0.0625,0.0625 0.1875,-0.15625 c 1.56005,-0.12024 3.0797,-0.46253 4.5,-1.0625 2.85948,-1.22009 5.13487,-2.99255 6.875,-5.3125 1.74009,-2.31993 2.53489,-4.67102 2.375,-7.03125 -0.08,-1.15965 -0.44509,-2.23851 -1.125,-3.21875 -1.52041,-2.13986 -4.33779,-3.43761 -8.4375,-3.9375 l -0.0625,0 c -0.73976,-0.20018 -2.11378,-0.31248 -4.09375,-0.3125 z m 1.90625,3.34375 c 3.1201,2e-5 5.22105,0.27236 6.28125,0.8125 0.59996,0.31984 1.10258,0.75356 1.5625,1.34375 0.45988,0.59022 0.74363,1.20412 0.84375,1.84375 l 0.0312,0.21875 c -0.0202,0.8197 -0.2925,1.69349 -0.8125,2.59375 -1.04006,1.83961 -2.74526,3.60096 -5.125,5.28125 -1.40016,0.99976 -2.62764,1.70508 -3.6875,2.125 -1.05989,0.41991 -1.891,0.7262 -2.53125,0.90625 l -0.1875,-0.0937 -0.1875,-0.15625 -0.0937,-0.1875 c 0.11962,-1.26036 0.44872,-2.97607 0.96875,-5.15625 0.8203,-3.45945 1.67394,-6.59483 2.59375,-9.375 l 0.0937,-0.0625 0.25,-0.0937 z m 20.90625,0.8125 c -1.68031,0.23988 -2.76124,0.8434 -3.28125,1.84375 -0.91981,1.75965 -1.44227,2.72621 -1.5625,2.90625 -1.40015,2.20033 -2.63905,4.33521 -3.71875,6.375 -0.88013,1.66016 -1.34375,2.80897 -1.34375,3.46875 l 0,0.28125 c 0,0.39978 0.1701,0.72992 0.5,1 0.32989,0.27008 0.70446,0.40625 1.125,0.40625 0.69946,0 1.25585,-0.21619 1.65625,-0.65625 0.21972,-0.26001 0.45977,-0.74884 0.75,-1.46875 0.29021,-0.7199 0.59545,-1.23095 0.875,-1.53125 l 0.15625,0 c 0.0598,0 0.0847,-0.0117 0.125,-0.0312 3.25987,-0.12024 4.75731,-0.1875 4.4375,-0.1875 l 0.15625,0 0.0625,0 0.0937,0.5625 0.21875,1.125 c 0.11961,0.62012 0.31358,1.04138 0.59375,1.28125 0.21971,0.2002 0.64098,0.34912 1.28125,0.46875 0.21971,0 0.50316,-0.0477 0.84375,-0.1875 0.61949,-0.26001 0.93748,-0.75964 0.9375,-1.5 -2e-5,-0.26001 -0.0679,-0.49902 -0.1875,-0.71875 -1.18044,-8.64012 -2.07912,-13.10387 -2.71875,-13.34375 l -0.34375,-0.0625 c -0.0995,-0.0201 -0.23732,-0.0312 -0.4375,-0.0312 l -0.21875,0 z m 76,0 c -1.68031,0.23988 -2.79249,0.8434 -3.3125,1.84375 -0.91981,1.75965 -1.41102,2.72621 -1.53125,2.90625 -1.40015,2.20033 -2.67029,4.33521 -3.75,6.375 -0.88013,1.66016 -1.3125,2.80897 -1.3125,3.46875 l 0,0.28125 c 0,0.39978 0.1701,0.72992 0.5,1 0.32989,0.27008 0.70447,0.40625 1.125,0.40625 0.69946,0 1.25586,-0.21619 1.65625,-0.65625 0.21972,-0.26001 0.45977,-0.74884 0.75,-1.46875 0.29022,-0.7199 0.59545,-1.23095 0.875,-1.53125 l 0.15625,0 c 0.0598,0 0.0847,-0.0117 0.125,-0.0312 3.25988,-0.12024 4.72606,-0.1875 4.40625,-0.1875 l 0.1875,0 0.0625,0 0.0937,0.5625 0.21875,1.125 c 0.11962,0.62012 0.31359,1.04138 0.59375,1.28125 0.21972,0.2002 0.64098,0.34912 1.28125,0.46875 0.21971,0 0.50316,-0.0477 0.84375,-0.1875 0.61949,-0.26001 0.93749,-0.75964 0.9375,-1.5 -1e-5,-0.26001 -0.0679,-0.49902 -0.1875,-0.71875 -1.18043,-8.64012 -2.07911,-13.10387 -2.71875,-13.34375 l -0.34375,-0.0625 c -0.0995,-0.0201 -0.23732,-0.0312 -0.4375,-0.0312 l -0.21875,0 z m -43.4375,0.0312 c -1.04006,2e-5 -1.63039,0.29786 -1.75,0.9375 -0.22035,0.66041 -0.5038,1.70535 -0.84375,3.125 l -1.15625,5 -4.90625,0.0937 c 0.41991,-2.16001 0.9652,-3.8424 1.625,-5.0625 0.24047,-0.3601 0.37499,-0.67748 0.375,-0.9375 -1e-5,-0.7202 -0.36244,-1.19762 -1.0625,-1.4375 -0.3003,-0.10008 -0.68495,-0.15624 -1.125,-0.15625 -0.0598,1e-5 -0.10755,0.0112 -0.1875,0.0312 l -0.15625,-0.0625 -0.4375,0.1875 c -0.52003,0.10011 -0.91578,0.38356 -1.15625,0.84375 -0.11964,0.26002 -0.24635,0.73745 -0.40625,1.4375 -0.78004,3.80006 -1.38086,6.6742 -1.78125,8.59375 -0.29969,1.52038 -0.4375,2.47522 -0.4375,2.875 0,0.23987 0.003,0.41101 0.0625,0.53125 0.26,0.59997 0.90588,0.90625 1.90625,0.90625 l 0.0625,0 c 0.0403,0 0.0964,-0.0111 0.15625,-0.0312 l 0.28125,-0.0625 c 0.6195,-0.12024 0.98193,-0.56372 1.0625,-1.34375 0.29967,-1.40014 0.52758,-2.45617 0.6875,-3.15625 0.0403,-0.18005 0.0625,-0.31787 0.0625,-0.4375 l 0.0625,-0.0312 1.15625,-0.0625 c 0.32042,-0.0201 1.22753,-0.0312 2.6875,-0.0312 l 1,0.125 c -0.0604,0.29969 -0.0939,0.45972 -0.0937,0.5 l -0.0312,0.28125 -0.0625,0.5625 -0.0937,2.25 c 0.46019,0.67994 0.98534,1.03125 1.625,1.03125 0.20018,0 0.41368,-0.0562 0.59375,-0.15625 0.75987,-0.0598 1.30516,-0.7312 1.625,-2.03125 l 1.875,-10.1875 c 0.27952,-0.70005 0.47349,-1.64378 0.59375,-2.84375 -0.10012,-0.85997 -0.66762,-1.28123 -1.6875,-1.28125 l -0.125,0 z m -18.53125,0.25 c -0.10011,2e-5 -0.1902,0.0118 -0.25,0.0312 -1.07972,2e-5 -2.26246,0.41994 -3.5625,1.25 -1.30006,0.83009 -2.20716,1.71633 -2.6875,2.65625 -0.57984,1.12001 -0.8639,1.94873 -0.84375,2.46875 0.0201,0.74037 0.36034,1.50124 1,2.28125 0.58044,0.67994 1.229,1.19129 1.96875,1.53125 0.26,0.11963 0.46239,0.2013 0.5625,0.28125 0.19957,0.1001 0.79198,0.28235 1.8125,0.5625 0.91979,0.21973 1.42003,0.42212 1.5,0.5625 0.31981,0.15992 0.51109,0.28601 0.53125,0.40625 l 0,0.0625 c -1e-5,0.38025 -0.30629,0.61866 -0.90625,0.71875 -0.13978,0.0995 -0.77455,0.15625 -1.875,0.15625 -0.49989,0 -1.22743,-0.13513 -2.1875,-0.375 -0.35951,-0.19958 -0.67957,-0.42749 -1,-0.6875 -0.21973,-0.16052 -0.49238,-0.44635 -0.8125,-0.90625 -0.32014,-0.45989 -0.59278,-0.75475 -0.8125,-0.875 0.0201,-0.0195 -0.0811,-0.0649 -0.28125,-0.125 -0.2002,-0.0601 -0.28126,-0.11657 -0.28125,-0.15625 -0.37964,0.08 -0.55982,0.13672 -0.5,0.15625 -0.36011,0.0202 -0.66639,0.14625 -0.90625,0.40625 -0.28016,0.38025 -0.40625,0.78772 -0.40625,1.1875 0,0.57984 0.28344,1.16956 0.84375,1.75 0.7196,0.7196 1.71002,1.32239 3,1.8125 1.28997,0.4901 2.50499,0.71875 3.625,0.71875 0.26,0 0.49974,-0.0111 0.75,-0.0312 0.25023,-0.0201 0.95421,-0.15797 2.09375,-0.4375 1.10045,-0.44006 2.00755,-1.06372 2.6875,-1.84375 0.55967,-0.6604 0.81248,-1.25013 0.8125,-1.75 -0.08,-0.3601 -0.10488,-0.6012 -0.125,-0.78125 -0.53957,-1.23963 -1.61842,-2.03504 -3.21875,-2.375 -1.3202,-0.49987 -2.30897,-0.87341 -2.96875,-1.09375 -0.0598,-0.0397 -0.14991,-0.0625 -0.25,-0.0625 -0.59999,-0.0201 -0.90626,-0.4414 -0.90625,-1.28125 -1e-5,-0.33996 0.079,-0.62341 0.21875,-0.84375 0.7202,-1.14012 1.65282,-1.90162 2.8125,-2.28125 1.24022,1e-5 2.15843,0.28407 2.71875,0.84375 0.71959,0.58045 1.24205,0.92006 1.5625,1 l 0.15625,0 c 0.92039,1e-5 1.37498,-0.47741 1.375,-1.4375 -2e-5,-0.56029 -0.1913,-1.03503 -0.53125,-1.375 -0.18007,-0.18004 -0.58962,-0.45239 -1.25,-0.8125 -1.33974,-0.75988 -2.48854,-1.19286 -3.46875,-1.3125 z m 86.1875,0.3125 -1.65625,0.28125 c -0.59998,1.56006 -0.90894,2.55788 -0.96875,2.9375 0,0.0604 -0.0111,0.10756 -0.0312,0.1875 -1.04004,3.73963 -1.74536,7.14734 -2.125,10.1875 0.011,0.13105 0.002,0.26179 0.0312,0.375 0.0598,0.49987 0.276,0.91846 0.65625,1.21875 l 2.1875,0.75 c 0.53955,0 1.08483,-0.0562 1.625,-0.15625 l 0.125,0.125 0.3125,-0.25 c 1.11999,-0.08 2.18774,-0.3412 3.1875,-0.78125 1.92016,-0.81971 3.51244,-2.01356 4.8125,-3.59375 1.47948,-1.77978 2.17101,-3.65344 2.03125,-5.59375 -0.12025,-1.67968 -0.9601,-2.98851 -2.5,-3.96875 -1.2201,-0.75988 -2.7881,-1.24841 -4.6875,-1.46875 l -0.0312,0 c -0.54017,-0.1599 -1.52894,-0.24998 -2.96875,-0.25 z m -59.15625,0.0625 c -0.52003,2e-5 -0.98634,0.0341 -1.40625,0.0937 -0.83985,2e-5 -1.54249,0.42128 -2.0625,1.28125 -0.3003,0.54017 -0.44862,0.91639 -0.46875,1.15625 l -1.0625,4.03125 c -0.29969,1.16029 -0.52759,2.08179 -0.6875,2.78125 l -0.4375,1.75 c -0.21973,0.9198 -0.34375,1.55457 -0.34375,1.875 0,0.11962 0.0111,0.2013 0.0312,0.28125 0,0.72022 0.18017,1.20874 0.5,1.46875 0.15991,0.15991 0.30883,0.29504 0.46875,0.375 0.62011,0.48034 1.41491,0.73047 2.375,0.75 2.78014,0.0403 5.37291,-0.67346 7.8125,-2.09375 1.70043,-0.9796 2.56249,-2.005 2.5625,-3.125 -1e-5,-0.4602 -0.15944,-0.91271 -0.5,-1.3125 -0.55403,-0.79718 -1.27063,-1.357 -2.125,-1.71875 2.2022,-0.97573 3.40683,-1.96067 3.5625,-3.03125 0.0403,-0.16051 0.0625,-0.36498 0.0625,-0.625 -1e-5,-0.52002 -0.18019,-1.02929 -0.5,-1.46875 -1.18043,-1.66014 -3.76149,-2.46873 -7.78125,-2.46875 z m 45.4375,0.15625 c -0.70141,0.0488 -1.2501,0.18 -1.625,0.375 l -0.46875,0.34379 c -0.36011,0.41994 -0.54236,0.65834 -0.5625,0.71875 -0.08,0.26002 -0.18116,0.52125 -0.28125,0.78125 l -1.78125,8 c -0.18005,0.87953 -0.3374,1.52869 -0.4375,1.96875 -0.23987,1.11999 -0.34375,1.7887 -0.34375,1.96875 l 0,0.125 c 0,0.54016 0.43237,1.05151 1.3125,1.53125 0.23987,0.14038 0.47888,0.21875 0.71875,0.21875 0.74035,0 1.09375,-0.42127 1.09375,-1.28125 0.0799,-0.12024 0.20398,-0.35864 0.34375,-0.71875 0.54016,-1.45995 0.92749,-2.56103 1.1875,-3.28125 0.96008,0.82032 1.49365,1.2638 1.59375,1.34375 1.51977,1.32018 2.29235,2.01172 2.3125,2.03125 0.83983,0.6604 1.74755,1.19397 2.6875,1.59375 0.78002,-0.26001 1.20128,-0.60022 1.28125,-1 0.30028,-0.12024 0.43749,-0.29138 0.4375,-0.53125 -1e-5,-0.46019 -0.54469,-1.09498 -1.625,-1.875 -1.61988,-1.15966 -2.53028,-1.81994 -2.75,-2 -0.74036,-0.3601 -1.31898,-0.5874 -1.71875,-0.6875 l 0.375,-0.46875 c 0.13976,0.0195 0.28869,-0.0138 0.46875,-0.0937 0.0201,-0.0195 0.14489,-0.0548 0.375,-0.125 0.23009,-0.0702 0.35546,-0.10485 0.375,-0.125 3.38011,-0.91979 5.30992,-2.36108 5.75,-4.28125 -0.11964,-0.99974 -0.26753,-1.63751 -0.4375,-1.9375 -0.17,-0.29997 -0.66859,-0.72093 -1.46875,-1.28125 -1.16029,-0.53954 -2.22877,-0.8925 -3.21875,-1.0625 -0.99,-0.16997 -1.9441,-0.24998 -2.84375,-0.25 -0.27008,0 -0.5162,-0.0162 -0.75,0 z m -26.90625,0.0937 c -2.10023,0.23988 -3.56641,0.61403 -4.40625,1.09375 -0.71961,0.4004 -1.19703,0.69496 -1.4375,0.875 -1.21949,0.85999 -2.24249,2.0088 -3.0625,3.46875 -0.82001,1.45997 -1.21875,2.90394 -1.21875,4.34375 l 0,0.34375 c 0,0.0995 0.0118,0.19227 0.0312,0.3125 0.18005,0.85999 0.29504,1.36023 0.375,1.5 l 0.5,0.78125 c 0.52002,0.85998 1.16919,1.52869 1.96875,1.96875 1.32019,0.72021 2.90136,1.0625 4.78125,1.0625 2.13988,0 3.76342,-0.43237 4.84375,-1.3125 1.19994,-0.97961 2.16515,-2.21985 2.875,-3.75 0.70982,-1.53015 1.06248,-3.08508 1.0625,-4.625 l 0,-0.46875 c -2e-5,-0.85998 -0.1913,-1.62084 -0.53125,-2.28125 -1.04005,-1.93967 -2.48402,-3.05248 -4.34375,-3.3125 l -1.4375,0 z m 27.9375,2.25 c 1.39165,-0.11561 2.53165,0.14993 3.4375,0.78125 0.32485,0.3414 0.83247,0.87172 0.84375,0.90625 -0.0195,0.0403 -0.0424,0.0853 -0.0625,0.125 l -0.1875,0.375 -0.6875,0.84375 -0.0312,0 c -0.44404,0.21215 -0.76589,0.4139 -1,0.53125 -1.4203,0.59998 -2.38624,0.88612 -2.90625,0.90625 -0.26002,0.21974 -0.47413,0.25371 -0.59375,0.0937 -0.08,-0.10009 -0.0938,-0.27123 -0.0937,-0.53125 -10e-6,-1.0797 0.25012,-2.20629 0.75,-3.40625 l 0.53125,-0.625 z m -27.25,0.3125 c 0.81969,1e-5 1.3983,0.41017 1.71875,1.25 0.33995,0.93995 0.46398,1.92872 0.34375,2.96875 -0.20021,1.7401 -0.84669,3.21741 -1.90625,4.4375 -1.18043,1.35987 -2.59046,2.08472 -4.25,2.125 -0.22034,0 -0.66114,-0.16845 -1.28125,-0.46875 -0.5597,-0.18004 -0.93592,-0.46411 -1.15625,-0.84375 -0.18006,-0.30029 -0.3263,-0.78881 -0.40625,-1.46875 0.14038,-1.43981 0.7301,-2.92883 1.75,-4.46875 1.51977,-2.36022 3.24718,-3.53124 5.1875,-3.53125 z m 41.25,0.15625 0.0312,0.1875 0.0312,-0.0312 0.0625,-0.0312 c 2.33947,10e-6 3.80626,0.2162 4.40625,0.65625 0.80016,0.57984 1.27489,1.24012 1.375,2 -0.0397,1.19996 -0.89125,2.55115 -2.53125,4.03125 -1.38001,1.26038 -2.72217,2.15906 -4.0625,2.71875 -0.68034,0.26886 -1.18593,0.43847 -1.59375,0.5625 0.0407,-0.43285 0.0894,-0.91994 0.1875,-1.46875 0.39978,-2.11974 1.08019,-4.67589 2,-7.65625 0.12023,-0.39977 0.15361,-0.70873 0.0937,-0.96875 z m -57.96875,0.0312 c 0.44005,1e-5 0.91478,0.0568 1.375,0.15625 0.64025,0.18007 0.93749,0.42958 0.9375,0.75 -1e-5,0.21974 -0.18226,0.47254 -0.5625,0.8125 -0.64027,0.56031 -1.48012,1.04646 -2.5,1.40625 -0.98357,0.34699 -1.88392,0.51889 -2.71875,0.53125 0.38024,-1.64 0.75377,-2.71886 1.09375,-3.21875 l 0.125,-0.15625 c 0.71959,-0.19957 1.46996,-0.28124 2.25,-0.28125 z m 31.3125,1.6875 0.5,4.3125 -0.0312,0.0312 -3.03125,0 2.5625,-4.34375 z m -76,0.0625 0.5,4.25 -0.0312,0.0312 -3.03125,0 2.5625,-4.28125 z m 43.1875,4.625 c 1.09984,1e-5 1.95079,0.18226 2.53125,0.5625 0.0799,0.08 0.1367,0.14783 0.15625,0.1875 -0.13979,0.50049 -0.80849,1.068 -1.96875,1.6875 -1.39955,0.7605 -2.40211,1.17006 -3.0625,1.25 -0.33998,0.13977 -0.80421,0.20764 -1.34375,0.1875 l 0.0625,-0.34375 0.8125,-3.15625 c 1.04003,-0.23986 1.97265,-0.37499 2.8125,-0.375 z m -37.28125,11.5625 c -1.04005,2e-5 -1.99489,0.24746 -2.875,0.6875 l -0.5625,0.25 c -2.45973,1.23964 -4.08595,2.68092 -4.90625,4.28125 -0.7599,1.48012 -1.14515,2.52772 -1.125,3.1875 0.0195,0.9198 0.47204,1.86354 1.3125,2.84375 0.78002,0.89967 1.62255,1.59119 2.5625,2.03125 0.37963,0.18006 0.65197,0.31727 0.8125,0.4375 0.26,0.11964 0.90648,0.3025 1.90625,0.5625 0.88011,0.22034 1.36021,0.36658 1.5,0.40625 0.75987,0.22034 1.2346,0.42481 1.375,0.625 0.53953,0.27954 0.8347,0.60865 0.875,0.96875 l 0,0.125 c -2e-5,0.33997 -0.18123,0.65869 -0.53125,0.96875 -0.35005,0.31006 -0.70241,0.50268 -1.0625,0.5625 -0.10011,0.0604 -0.56374,0.0964 -1.34375,0.15625 -0.59999,0.0397 -1.10023,0.0625 -1.5,0.0625 -0.67994,0 -1.4297,-0.0817 -2.25,-0.28125 -0.29969,-0.0604 -0.63148,-0.15051 -1.03125,-0.25 -1.30006,-0.72021 -2.23206,-1.56005 -2.8125,-2.5 -0.37965,-0.59997 -0.78712,-0.99841 -1.1875,-1.21875 0.005,-0.005 -1e-5,-0.0215 0,-0.0312 -0.31983,0.0397 -0.66004,0.085 -1,0.125 -0.33997,0.04 -0.58106,0.14355 -0.78125,0.34375 l -0.0312,0.0312 c -0.32044,0.41993 -0.5,0.86133 -0.5,1.28125 0,0.67994 0.37353,1.36243 1.09375,2.0625 1.04003,1.06017 2.56268,1.935 4.5625,2.625 1.99981,0.69 3.78368,0.91894 5.34375,0.71875 0.48033,0 0.93626,-0.0363 1.40625,-0.15625 0.46995,-0.11993 0.94603,-0.26587 1.40625,-0.40625 1.85972,-0.73975 3.16856,-1.77357 3.96875,-3.09375 0.2197,-0.3601 0.41099,-0.71411 0.53125,-1.09375 0.0396,-0.12024 0.0625,-0.1986 0.0625,-0.21875 -0.0397,-0.21972 -0.10757,-0.57104 -0.1875,-1.03125 -0.67995,-1.56004 -2.05605,-2.56054 -4.15625,-3 -0.93996,-0.30028 -2.35841,-0.81103 -4.21875,-1.53125 -0.0195,-0.0195 -0.0763,1e-5 -0.15625,0 -0.78004,-0.0403 -1.32472,-0.52611 -1.625,-1.40625 -0.13978,-0.37963 -0.17579,-0.77867 -0.15625,-1.21875 0.0201,-0.41991 0.13512,-0.80724 0.375,-1.1875 1.10045,-1.75963 2.52159,-2.92858 4.28125,-3.46875 l 0.125,0 c 1.90001,2e-5 3.30735,0.43239 4.1875,1.3125 0.91978,0.73976 1.53501,1.17006 1.875,1.25 l 0.15625,0 c 0.92039,1e-5 1.37498,-0.48851 1.375,-1.46875 -2e-5,-0.78001 -0.24954,-1.35924 -0.75,-1.71875 -0.89968,-0.6201 -2.10525,-1.26866 -3.625,-1.96875 -0.72023,-0.3198 -1.56008,-0.536 -2.5,-0.65625 -0.1404,2e-5 -0.19924,-0.0201 -0.21875,0 z m 78.9375,4.34375 c -0.70009,2e-5 -1.52882,0.54469 -2.46875,1.625 -1.95985,2.24 -3.66505,4.67274 -5.125,7.3125 0.0598,-1.90002 0.16369,-3.45629 0.34375,-4.65625 0.0598,-0.11962 0.11596,-0.23461 0.15625,-0.375 l 0.125,-0.53125 c 0.10009,-0.36009 0.15624,-0.66906 0.15625,-0.96875 -0.0806,-0.31981 -0.26014,-0.56993 -0.5,-0.75 -0.49989,-0.38023 -1.21632,-0.59374 -2.15625,-0.59375 l -0.25,0 c -0.12025,1e-5 -0.30042,0.11232 -0.5,0.3125 l 0.28125,-0.28125 c -1.06019,0.0397 -1.84388,0.52882 -2.34375,1.46875 -0.33997,0.84047 -0.6012,1.48635 -0.78125,1.90625 -1.71997,4.35975 -2.70874,6.85975 -2.96875,7.5 l -0.34375,1.25 c -0.34058,0.88013 -0.53125,1.53772 -0.53125,1.9375 l 0,0.0937 c 0,0.41992 0.14624,0.77228 0.40625,1.0625 0.26001,0.29022 0.57947,0.4375 1,0.4375 l 0.53125,0 c 0.27954,0 0.52966,-0.036 0.75,-0.15625 0.59997,-0.98022 0.88611,-1.54773 0.90625,-1.6875 l 2.46875,-6.5 0,0.78125 0,1.28125 0,1.15625 c -0.1001,1.2201 -0.0211,2.16383 0.21875,2.84375 0.26,0.74036 0.68127,1.125 1.28125,1.125 0.62011,0 1.28881,-0.27234 1.96875,-0.8125 0.18004,-0.28015 0.39623,-0.64526 0.65625,-1.125 0.54015,-1.01989 1.07372,-2.05371 1.59375,-3.09375 0.69945,-1.30004 1.30358,-2.27502 1.84375,-2.875 -0.39979,1.8396 -0.62709,3.40699 -0.6875,4.6875 -0.0195,0.19959 -0.0313,0.5398 -0.0312,1 l 0,0.40625 c -10e-6,0.13977 0.0228,0.2749 0.0625,0.375 0.10009,0.67992 0.30516,1.18018 0.625,1.5 l 0.21875,0.21875 c 0.41991,0.21973 0.87511,0.3125 1.375,0.3125 0.18004,0 0.34007,-0.0228 0.5,-0.0625 0.70006,-0.12024 1.06248,-0.46252 1.0625,-1.0625 l 0,-0.46875 c -2e-5,-2.07945 0.29515,-4.13868 0.875,-6.21875 0.46019,-1.60033 1.20994,-3.5863 2.25,-5.90625 0.0799,-0.67992 -0.24855,-1.239 -0.96875,-1.71875 -0.57985,-0.40038 -1.24013,-0.64989 -2,-0.75 z m -60.09375,0.34375 c -0.49989,2e-5 -0.93227,0.19399 -1.3125,0.59375 -0.83986,0.91981 -1.76002,1.9637 -2.75,3.09375 -0.99,1.13007 -1.70509,2.03883 -2.125,2.71875 -0.38026,-0.96007 -0.75648,-1.91492 -1.15625,-2.875 -0.54017,-1.21947 -1.09657,-2.05992 -1.65625,-2.5 -0.28016,-0.0799 -0.58643,-0.12499 -0.90625,-0.125 -0.64026,1e-5 -1.08375,0.11293 -1.34375,0.3125 -0.31983,0.24049 -0.46875,0.60499 -0.46875,1.125 l 0,0.0937 c 0,0.37965 0.16003,0.92495 0.5,1.625 0.8197,1.2201 1.47997,3.07094 2,5.53125 l -0.90625,5.09375 c 0.0403,0.48035 0.30151,0.85657 0.78125,1.15625 l 0.21875,0.21875 c 0.73974,0.27954 1.29613,0.40625 1.65625,0.40625 0.7196,0 1.20873,-0.69421 1.46875,-2.09375 0.38024,-1.88048 0.67479,-3.24548 0.875,-4.125 0.1599,-0.64025 0.22985,-0.97985 0.25,-1 0.0397,-0.13976 0.24266,-0.44604 0.5625,-0.90625 1.20055,-1.71996 2.88292,-3.59631 5.0625,-5.65625 l 0.25,-0.1875 c 0.54014,-0.39977 0.80137,-0.79881 0.78125,-1.21875 l 0,-0.0625 -0.21875,-0.5 c -0.26003,-0.47972 -0.78249,-0.71873 -1.5625,-0.71875 z m 9.09375,0 c -0.10011,2e-5 -0.1902,0.0118 -0.25,0.0312 -1.07972,2e-5 -2.26246,0.41994 -3.5625,1.25 -1.30006,0.83009 -2.20716,1.71633 -2.6875,2.65625 -0.57984,1.12001 -0.8639,1.94874 -0.84375,2.46875 0.0201,0.74036 0.36034,1.50123 1,2.28125 0.58044,0.67993 1.229,1.19129 1.96875,1.53125 0.26,0.11963 0.46239,0.2013 0.5625,0.28125 0.19957,0.1001 0.79198,0.28235 1.8125,0.5625 0.91979,0.21973 1.42003,0.42212 1.5,0.5625 0.31981,0.15992 0.47984,0.28601 0.5,0.40625 l 0,0.0625 c -1e-5,0.38025 -0.27504,0.61866 -0.875,0.71875 -0.13978,0.0995 -0.77455,0.15625 -1.875,0.15625 -0.49989,0 -1.22743,-0.13513 -2.1875,-0.375 -0.35951,-0.19958 -0.71082,-0.42749 -1.03125,-0.6875 -0.21973,-0.16052 -0.46113,-0.44635 -0.78125,-0.90625 -0.32014,-0.45989 -0.59278,-0.75476 -0.8125,-0.875 0.0201,-0.0195 -0.0811,-0.0649 -0.28125,-0.125 -0.2002,-0.0601 -0.31251,-0.11657 -0.3125,-0.15625 -0.37964,0.08 -0.52857,0.13672 -0.46875,0.15625 -0.36011,0.0202 -0.66639,0.14625 -0.90625,0.40625 -0.28016,0.38025 -0.40625,0.78772 -0.40625,1.1875 0,0.57984 0.28344,1.16956 0.84375,1.75 0.7196,0.7196 1.71002,1.32239 3,1.8125 1.28997,0.49011 2.50499,0.71875 3.625,0.71875 0.26,0 0.49974,-0.0111 0.75,-0.0312 0.25023,-0.0201 0.95421,-0.15796 2.09375,-0.4375 1.10045,-0.44006 1.9763,-1.06373 2.65625,-1.84375 0.55967,-0.6604 0.84373,-1.25012 0.84375,-1.75 -0.08,-0.3601 -0.10488,-0.60119 -0.125,-0.78125 -0.53957,-1.23962 -1.61842,-2.03504 -3.21875,-2.375 -1.3202,-0.49987 -2.30897,-0.87341 -2.96875,-1.09375 -0.0598,-0.0397 -0.14991,-0.0625 -0.25,-0.0625 -0.59999,-0.0201 -0.90626,-0.4414 -0.90625,-1.28125 -1e-5,-0.33996 0.079,-0.6234 0.21875,-0.84375 0.7202,-1.14013 1.65282,-1.9016 2.8125,-2.28125 1.24022,1e-5 2.15843,0.28408 2.71875,0.84375 0.71959,0.58046 1.24205,0.92005 1.5625,1 l 0.125,0 c 0.92039,1e-5 1.40623,-0.47742 1.40625,-1.4375 -2e-5,-0.56029 -0.1913,-1.03502 -0.53125,-1.375 -0.18007,-0.18004 -0.58962,-0.45238 -1.25,-0.8125 -1.33974,-0.75987 -2.48854,-1.19286 -3.46875,-1.3125 z m 16.15625,0.28125 c -0.12025,2e-5 -0.25538,0.0118 -0.375,0.0312 l -0.5,0 c -1.12,0.0202 -2.06373,0.0763 -2.84375,0.15625 l -1.6875,0 c -0.16053,2e-5 -0.42176,2e-5 -0.78125,0 -0.33997,-0.0201 -0.6012,-0.0312 -0.78125,-0.0312 l -0.375,0 c -0.23987,2e-5 -0.53773,0.0222 -0.9375,0.0625 -0.49988,0.0397 -0.84009,0.0625 -1,0.0625 -0.62012,0.0806 -0.9375,0.47902 -0.9375,1.21875 0,0.6598 0.19128,1.20509 0.53125,1.625 0.47973,0.16053 1.08386,0.21876 1.84375,0.21875 l 2.1875,0 -1.875,9.34375 c -0.18006,0.92041 -0.3263,1.45398 -0.40625,1.59375 -1e-5,0.33997 0.0662,0.56757 0.15625,0.6875 0.09,0.11993 0.12499,0.1986 0.125,0.21875 l 0.25,0.1875 c 0.20019,0.3595 0.61034,0.5625 1.25,0.5625 0.4602,0 0.84753,-0.12506 1.1875,-0.375 0.33996,-0.24994 0.4973,-0.60229 0.4375,-1.0625 0.91979,-4.13939 1.59118,-7.25195 2.03125,-9.3125 0.20019,-0.85997 0.42748,-1.48633 0.6875,-1.90625 l 5.4375,-0.3125 c 0.65978,-0.24047 0.99999,-0.66173 1,-1.28125 -1e-5,-0.24046 -0.0673,-0.46776 -0.1875,-0.6875 -0.31984,-0.65978 -0.89906,-0.99998 -1.71875,-1 -0.18007,2e-5 -0.35121,0.0228 -0.53125,0.0625 -0.20021,2e-5 -0.52766,-0.0114 -0.9375,-0.0312 -0.40986,-0.0198 -0.71717,-0.0312 -0.9375,-0.0312 l -0.3125,0 z m 7.6875,0.21875 c -0.30502,0.01 -0.50373,0.0427 -0.59375,0.0625 -0.73975,0.1404 -1.21717,0.89015 -1.4375,2.25 l -1.9375,11.90625 c 0.41992,0.29968 0.85022,0.57471 1.25,0.875 0.58044,0.41992 0.98999,0.65625 1.25,0.65625 0.33996,0 1.10144,-0.11231 2.28125,-0.3125 l 6.625,-0.9375 c 0.57982,-0.08 0.96611,-0.18353 1.15625,-0.34375 0.19011,-0.16022 0.28124,-0.4662 0.28125,-0.90625 -1e-5,-0.18005 -0.0222,-0.41907 -0.0625,-0.71875 l -0.28125,0 c -0.18007,-0.13977 -0.4413,-0.26379 -0.78125,-0.34375 -0.0397,0 -0.33485,-0.0333 -0.875,-0.0937 -0.37965,0 -0.79823,0.0334 -1.21875,0.0937 -0.53956,0.0397 -0.9275,0.0625 -1.1875,0.0625 l -0.1875,0.0312 c -1.9397,0.13977 -3.39478,0.25269 -4.375,0.3125 0.0201,-0.17944 0.0652,-0.41845 0.125,-0.71875 0.28784,-1.42218 0.49793,-2.32926 0.65625,-2.84375 l 0.3125,0 0.25,0 0.21875,0 0.4375,0 c 0.62011,10e-6 1.56115,-0.0676 2.78125,-0.1875 1.22008,-0.11993 2.11876,-0.18749 2.71875,-0.1875 0.80016,-0.12023 1.18749,-0.55261 1.1875,-1.3125 l 0,-0.46875 c -0.15992,-0.64025 -0.86464,-0.93749 -2.125,-0.9375 l -2.40625,0 c -0.38026,10e-6 -0.72254,-0.0111 -1.0625,-0.0312 l -1.03125,0 c -0.26002,-0.0201 -0.44227,-0.043 -0.5625,-0.0625 l 0.125,-0.5 c 0.40038,-1.57958 0.58264,-2.36595 0.5625,-2.40625 2.36022,-0.1599 4.34887,-0.24999 5.96875,-0.25 l 0.8125,0 c 0.19957,1e-5 0.33739,-0.045 0.4375,-0.125 0.70006,-0.18004 1.06249,-0.51122 1.0625,-1.03125 l 0,-0.28125 c -0.20021,-0.41991 -0.49538,-0.70396 -0.875,-0.84375 -0.23988,-0.10008 -0.63832,-0.17845 -1.21875,-0.21875 -2.19972,-0.13976 -3.995,-0.18748 -5.375,-0.1875 l -1.6875,0 c -0.52002,1e-5 -0.91373,-0.01 -1.21875,0 z"
       id="path2825"
       style="font-size:100px;font-style:normal;font-variant:normal;font-weight:normal;font-stretch:normal;text-align:start;line-height:125%;writing-mode:lr-tb;text-anchor:start;fill:#000000;fill-opacity:1;stroke:none;font-family:Jivetalk;-inkscape-font-specification:Jivetalk" />
  </g>
</svg>
